<svg xmlns="http://www.w3.org/2000/svg" viewBox="0 0 500 500" width="500" height="500">
     <line stroke="black" stroke-width="3" x1="50" y1="50\\0" x2="50" y2="450"/>
     <text fill="black" x="220" y="490">Year (2000-2020)</text>
     <line stroke="black" stroke-width="3" x1="50" y1="450" x2="500" y2="450"/>
     <text font-size="15" fill="black" x="0" y="240">P/sqm</text>
     {% for age in ages %}
     <text text-anchor="end" x="35" y="{{450-(age * 4)}}" fil="black">{{age}}</text>
     {% endfor %}
     {% for year in years2 %}
     <text text-anchor="start" x="{{50 + (loop.index0 * 75)}}" y="470" fil="black">{{year}}</text>
     {% endfor %}
     <g class="canada">
          <text fill="red" x="440" y="15">Canada</text>
          {% for val in canada %}
          <line stroke-width="2" x1="{{50+(loop.index0 * 7.5)}}" y1="{{450 - (val[0] * 4)}}" x2="{{57.5 + (loop.index0 * 7.5)}}" y2="{{450 - (val[1] * 4)}}"/>
          {% endfor %}
     </g>
     <g class="CA">
          <text fill="blue" x="440" y="30">CA</text>
          {% for val in CA %}
          <line stroke-width="2" x1="{{50+(loop.index0 * 7.5)}}" y1="{{450 - (val[0] * 4)}}" x2="{{57.5 + (loop.index0 * 7.5)}}" y2="{{450 - (val[1] * 4)}}"/>
          {% endfor %}
     </g>
     <g class="mexico">
          <text fill="green" x="440" y="45">Mexico</text>
          {% for val in mexico %}
          <line stroke-width="2" x1="{{50+(loop.index0 * 7.5)}}" y1="{{450 - (val[0] * 4)}}" x2="{{57.5 + (loop.index0 * 7.5)}}" y2="{{450 - (val[1] * 4)}}"/>
          {% endfor %}
     </g>
     <g class="average">
          <text fill="purple" x="440" y="60">Average</text>
          <line stroke-width="2" x1="{{50}}" y1="{{450 - (74.5 * 4)}}" x2="{{500}}" y2="{{450 - (74.5 * 4)}}"/>
     </g>
</svg>
