<?xml version="1.0" encoding="utf-8"?>
<!DOCTYPE svg PUBLIC "-//W3C//DTD SVG 1.1//EN" "http://www.w3.org/Graphics/SVG/1.1/DTD/svg11.dtd">
<svg version="1.1"
     id="NYC"
     xmlns="http://www.w3.org/2000/svg"
     xmlns:xlink="http://www.w3.org/1999/xlink"
     x="0px" y="0px"
     width="600px"
     height="595px"
     viewBox="0 0 1999.709 1977.598"
     enable-background="new 0 0 1999.709 1977.598"
     xml:space="preserve">




	 
<defs>
		<inkscape:perspective  inkscape:vp_y="0 : 1000 : 0" inkscape:vp_x="0 : 247.2 : 1" sodipodi:type="inkscape:persp3d" inkscape:vp_z="500 : 247.2 : 1" id="perspective144" inkscape:persp3d-origin="250 : 164.8 : 1">
		</inkscape:perspective>
</defs>


<g id="Layer_12">
	<rect id="Water" x="-0.283" fill="#9EC7F3" width="1999.992" height="1977.598"/>
</g>


<g id="Queens">
	<path id="path10" fill={{queensFill}} stroke="#000000" stroke-width="3" stroke-miterlimit="10" d="M1968.643,764.076l9.324,61.127
		l-28.254,52.357l-78.098,29.047l13.188,53.377l2.047,153.313l-8.012,15.035l-0.035,41.707c1.516,2.934,2.672-1.648,2.34,5.086
		c-0.129,2.594-1.723,3.258-3.094,5.102c-1.684,2.211-0.625,5.086,0.363,7.449c1.02,2.344,2.602,5.418,4.352,7.188
		c1.852,1.848,1.887,4.09,3.461,6.238c1.484,2.012,3.457,2.215,3.129,5.141c-0.129,1.227-0.824,2.141-1.059,3.328
		c-0.293,1.586,0.035,3.594,0.035,5.219c0,2.758,0.258,6.035,1.484,8.594c0.824,1.781,2.434,2.75,1.551,4.918
		c-0.75,1.844-3.496,2.426-4.879,3.492c-2.582,1.914-4.754,2.145-8.012,2.672c-3.957,0.66-7.23,2.098-10.918,3.527
		c-5.707,2.176-12.098,1.414-17.742,3.66c-4.945,1.977-9.332,5.145-11.578,10.121l1.609,1.25c-0.457,0.238-0.895,0.527-1.313,0.789
		c-6.301,4.156-5.441,13.25-5.441,19.98c0,4.055,0,8.508-1.414,12.297c-0.859,2.266-2.219,4.309-4.352,5.902
		c-2.086,1.551-6.168,4.582-8.875,4.289c-2.508-0.266-2.344-4.563-2.738-6.793c-0.957-5.539-1.254-10.023-5.605-14.211
		c-2.078-2.016-4.484-3.535-6.586-5.582c-2.34-2.27-4.613-4.77-6.691-7.223c-2.969-3.426-5.18-6.625-9.535-6.957
		c-0.984-1.449-1.516-3.559-2.27-5.074c-0.984-1.945-2.105-3.824-3.66-5.387c-2.539-2.539-3.398-5.672-5.469-8.539
		c-2.379-3.262-6-5.012-9.094-7.453c-3.238-2.504-6.754-4.547-10.152-6.781c-2.836-1.891-5.086-3.992-8.473-4.75
		c-3.992-0.891-8.539-0.781-12.199-2.801c-2.637-1.516-4.617-4.934-6.734-7.188c-3-3.129-6.66-5.176-10.613-6.918
		c-3.695-1.645-7.75-2.105-11.246-3.82c-3.203-1.613-5.871-4.254-8.906-6.164c-3.824-2.441-7.723-4.813-11.707-6.988
		c-8.105-4.418-18.336-7.125-27.5-8.086c-5.434-0.582-10.773-1.809-16.25-2.465c-5.176-0.625-10.484-2.313-15.66-2.508
		c-3.402-0.164-6.891-0.094-10.191,0.859c-2.637,0.754-5.473,1.355-8.047,2.305c-6.238,2.27-6.895,6-7.52,12.129
		c-0.324,3.402-0.488,9.758-5.508,8.801c-3.254-0.625-6.75-2.176-8.41-5.414c-1.613-3.258-0.164-5.543-4.777-5.301
		c-4.441,0.199-9.07,1.152-13.645,0.559c-2.633-0.328-5.012-1.352-7.586-1.938c-1.355-0.328-2.711-0.422-4.086-0.422
		c-1.117-0.07-2.25-0.035-3.371-0.035c-7.277,0-15.035,0.66-22.254-0.406c-3.859-0.523-6.695-1.414-9.859-3.688
		c-2.414-1.754-5.305-3.957-8.414-3.73c-0.234,4.684,1.25,8.926,2.637,13.352c1.32,4.188,3.457,8.109,4.98,12.168
		c1.414,3.855,2.43,8.043,3.492,12c1.848,7.121,5.305,14.602,5.539,21.957c0.164,4.055-2.309,6.66-4.516,9.727l-0.461,0.461
		c-2.047-2.086-4.055-3.988-5.012-7.02c-1.484-4.652-3.496-9.133-5.176-13.563c-1.914-4.934,0.258-11.434-1.941-15.895
		c-1.848-3.75-3.203,0.789-3.328,3.238c-0.203,3.258,0.656,6.125,1.418,9.125c1.781,6.992,4.75,13.25,4.352,20.711
		c-0.398,7.227-5.211,3.531-9.297,7.418c-4.477,4.32,6.406,5.309,9.039,2.672c1.418-1.418,3.094-5.672,4.391-1.121
		c0.656,2.309-0.461,4.152-2.473,4.68c-1.02,0.266-2.305,0.078-3.297,0.266c-0.891,0.195-1.91,0.891-2.797,1.055
		c-2.246,0.43-4.883,0.133-6.816-0.988c-4.125-2.375-4.453-8.18-5.254-12.695c-0.859-4.934-1.059-9.621-2.438-14.27
		c-1.277-4.254-2.082-8.598-4.355-12.66c-1.219-2.215-2.375-3.457-2.539-6.094c-0.199-3.461-0.297-7.285,0.078-10.719
		c0.23-2.414,1.414-5.172,1.055-7.613c-0.496-3.164-3.074-3.031-4.121,0c-0.918,2.582-0.199,6.402,0.262,9
		c0.891,4.941,1.582,9.992,2.266,14.969c1.391,9.914,3.098,19.25,5.578,28.883c1.191,4.719,1.32,9.363,2.348,13.98
		c0.488,2.246,0.293,4.813-0.332,7.02c-0.625,2.176-1.121,2.145-2.77,3.824c-1.418,1.453-1.977,3.004-2.668,4.754
		c-0.695,1.746-0.66,3.449-2.766,3.559c-1.68,0.098-2.543-1.449-3.492-2.535c-2.016-2.277-3.57-5.086-6.953-5.145
		c-3.734-0.098-7.648,1.844-11.047,3.09c-4.914,1.809-9.172,5.676-13.891,1.281c-3.727-3.461-8.012-7.914-10.414-12.363
		c-3.164-5.801,0.914-8.77,5.672-11.539c2.902-1.684,4.414-2.77,3.527-6.371c-0.691-2.793-2.145-4.277-4.945-2.762
		c-2.043,1.055-2.965,3.859-4.684,5.211c-2.133,1.719-3.559,0.789-5.766-0.457c-4.223-2.414-5.102-6.008-7.914-9.625
		c-4.586-6.074-12.758-15.953-21.133-17.34c-1.023-2.637,0.789-5.637-2.41-7.32c-0.988-0.523-4.285-1.063-4.715-2.172
		c-0.492-1.398,2.141-2.805,3.09-3.203c1.844-0.789,4.066-0.699,5.91-1.648c1.582-0.852,2.641-2.672,4.082-3.754
		c1.418-1.059,2.77-1.918,4.582-1.648c1.688,0.195,2.313,0.895,4.086,0.164c4.121-1.684,2.672-6.457-0.164-8.605
		c-1.684-1.32-4.52-1.914-3.758-4.547c0.297-0.992,2.508-3.43,3.406-3.664c1.938-0.527,2.34,1.852,4.063,2.441
		c1.516,0.527,5.137-0.328,6.07-1.586c2.141-3.043-3-9.754-3.367-13.086c-0.238-2.176-0.074-4.418-0.82-6.527
		c-0.664-1.887-1.813-3.594-2.637-5.277c-0.895-1.844-1.848-4.02-1.918-6.098c-0.035-2.242,0.953-4.023,0.859-6.395
		c-0.094-1.848-0.566-4.652-2.836-3.426c-1.414,0.754-2.102,3.371-3.164,4.586c-3.094,3.691-4.188-1.813-4.414-4.25
		c-0.332-3.754-0.859-8.27-2.406-11.766c-1.254-2.836-1.895-5.438-2.016-8.57c-0.238-3.902,0-10.781-4.352-12.574
		c-2.109-0.891-2.641-0.23-2.676-3.129c0-1.852,0.371-4.117-0.457-5.766c-1.156-2.336-2.766-1.645-4.941-1.844
		c-1.453-0.129-1.387,0.133-2.176-0.922c-0.586-0.789-0.793-2.672-0.922-3.66c-0.586-4.68-0.895-9.164-2.211-13.715
		c-1.484-5.176-1.773-10.484-2.93-15.695c-0.949-4.449-2.875-8.703-3.531-13.152c-0.492-3.426-0.328-6.898-0.328-10.355
		c0-3,0.328-6.328-3.492-6.406c-2.508-0.066-5.547,1.855-7.887,2.637c-4.605,1.516-9.918,2.543-14.082,5.215
		c-3.426,2.176-6.953,4.684-9.789,7.586c-3.727,3.859-6.164,8.375-10.547,11.574c-2.055,1.484-4.32,2.801-6.203,4.516
		c-2.469,2.273-4.586,4.285-7.453,6.133c-2.93,1.918-6,3.754-8.25,6.496c-1.879,2.242-2.34,4.414-5.305,5.578
		c-2.102,0.82-4.191,1.387-6.125,2.574c-1.449,0.918-2.875,4.121-4.188,4.613c-1.418,0.531-1.613-0.754-2.219-1.883
		c-1.316-2.512-2.539-5.543-3.328-8.246c-1.355,0.164-1.609,2.141-2.43,3.09c-0.922,1.086-2.109,1.586-2.672,2.875
		c-0.902,2.082-0.734,7.977-4.285,7.582c-1.121-1.754-1.879-3.727-3.133-5.539c-1.516-2.273-3.824-3.754-5.375-5.938
		c-1.285-1.91-2.504-4.309-3.035-6.457c-0.238-0.852,0.164-1.914-0.402-2.664c-0.621-0.859-2.211-0.992-3.09-1.559
		c-1.813-1.188-1.813-2.043-0.328-3.785c1.516-1.777,1.484-1.777,0.891-4.086c-0.629-2.375-1.156-2.594-3.094-4.113
		c-1.445-1.121-3.094-3.242-1.391-4.914c1.68-1.617,3.758-0.691,1.25-3.164c-1.281-1.254-2.598-2.707-4.188-3.629
		c-1.883-1.086-3.82-2.012-5.703-3.133c-2.379-1.383-5.109-1.844-7.453-3.125c-1.082-4.852,9.957-5.875,6.262-9.621
		c-3.496-3.566-8.637-5.551-12.234-9.074c-1.977-1.938-3.297-4.059-6-5.102c-1.918-0.758-8.84-1.254-9.563-3.496
		c-0.336-1.066,2.34-2.438,3.289-3.207c1.316-1.055,4.316-1.582,4.395-3.254c0.031-0.824-1.727-3.133-2.477-3.66
		c-1.387-0.988-3.59-0.563-5.172-0.859c-1.617-0.293-5.477-1.75-3.266-3.789c1.391-1.273,7.887-0.563,6.992-4.023
		c-3.957-0.199-5.012,0.57-7.648-2.914c-1.648-2.172-2.766-4.141-4.777-5.998c-1.285-1.152-3-3.359-4.523-4.088
		c-1.973-0.957-4.055-0.232-5.957-1.879c-1.32-1.121-2.508-2.209-3.922-3.232c-3.094-2.275-5.801-4.85-9.195-6.76
		c-2.309-1.285-3.367-2.736-0.629-3.857c1.418-0.561,5.105-0.658,4.754-2.832c-0.262-1.584-3.207-2.111-3.734-3.691
		c-0.586-1.813,0.492-4.088-0.363-5.836c-0.793-1.648-2.91-2.604-4.156-3.824c-1.582-1.516-2.141-3.428-3.527-5.012
		c-1.188-1.385-3.426-1.584-4.523-3.068c-0.914-1.219-0.914-3.891,0-5.145c1.523-2.111,5.109-1.32,6.699-3.527
		c1.156-1.584,0.754-4.219-0.863-5.275c-1.938-1.289-3.395-0.924-2.961-4.025c0.289-2.107,0.625-3.363,0-5.604
		c-0.328-1.188-0.625-2.408-0.953-3.592c-2.539-9.428-5.18-19.584-11.305-27.4c-2.875-3.691-6.586-6.658-11.109-7.943
		c-2.664-0.76-5.434-0.729-8.141-1.156c-3.594-0.559-6.891-2.111-10.254-3.527c-2.676-1.121-4.816-2.012-6.66-4.385
		c-3.863-4.947-6.699-10.814-9.863-16.225c-1.879-3.131-3.527-7.25-6.363-9.66c-2.57-2.207-5.766-4.086-8.742-5.766
		c-7.086-4.021-14.172-9.201-21.789-12.07c-9.031-3.426-17.801-0.098-25.352,5.109c-3.465,2.375-6.695,3.395-10.523,4.879
		c-2.543,1.021-6.164,3.857-9.074,4.121c0.039-5.572,0.402-11.113,0.824-15.957c0.922-10.252,6.695-21.332,12.406-29.871
		c3-4.516,7.516-7.385,10.914-11.539c4.023-4.945,7.063-11.25,10.086-16.85c2.906-5.34,6.367-10.451,9.5-15.627
		c2.262-3.793,2.758-8.605,5.406-12.168c3.07-4.188,6.922-7.617,9.727-12.266c5.906-9.791,10.195-20.967,18.531-29.047
		c4.023-3.893,30.098-10.781,20.418-18.1c-5.109-3.893-11.277-6.133-10.98-12.332c0.035-1.283,0.363-2.736,1.07-4.385
		c1.145-2.805,4.309-4.615,6.117-7.119c2.75-3.857,1.063-6.529,2.055-10.682c2.43-10.451,12,2.473,14.703,5.441
		c5.926,6.559,12.5-1.32,17.438-4.648c0.734-0.496,1.445-0.955,2.211-1.451c11.18-7.057,24.371-12.857,30.754-24.496
		c1.887-3.396,2.344-7.484,4.254-10.717c1.75-2.969,5.016-4.879,8.102-6.496c2.969-1.584,5.605-3.691,7.852-6.195
		c1.941-2.176,3.074-6.035,5.086-7.881c3.953-3.725,10.484,0.893,14.273,4.084c4.75,4.057,5.574,9.232,9.492,13.617
		c1.719,1.943,4.523,3.824,5.875,0.395c1.219-3.066-1.781-3.422-3-5.672c-3.41-6.395,3.781-6.691,7.844-4.32
		c4.355,2.504,8.543,5.41,13.082,7.813c4.559,2.412,8.586,5.248,5.348,10.848c-4.117,7.221-15.074,5.504-21.371,9.365
		c-4.383,2.703-12.918,16.023-7.383,20.703c3.418,2.904,5.926-1.615,6.488-4.943c0.797-4.484-0.031-5.768,4.25-8.145
		c6.496-3.627,14.309-8.439,20.145-2.244c3.074,3.232,5.379,5.705,9.102,8.209c2.867,1.943,8.957,4.451,6.98,9.199
		c-1.441,3.527-3.523,2.309-3.688,6.988c-0.043,0.363-0.074,0.793-0.129,1.252l-8.109-10.484l-10.848,10.682c0,0,12,12,13.98,14.211
		l9.363-1.516l0.07-0.232c1.477,0.428,3.164,0.496,4.938,0.365c0,5.471-0.129,10.811,1.188,16.188
		c0.734,2.967,1.727,5.932,2.75,8.768c0.781,2.209,1.117,5.867,3.328,7.188c2.758,1.584,6.09-0.855,8.211-2.572
		c2.906-2.408,5.672-4.711,8.836-6.752c6.594-4.221,13.453-8.34,20.344-12.1c2.305-1.252,4.715-3.031,7.316-3.363
		c3.098-0.396,4.52,1.188,7.023,2.668c2.473,1.516,4.941,3.031,7.582,4.287c1.918,0.92,3.758,2.9,6.008,2.736
		c2.707-0.195,2.738-2.309,3.617-4.516c1.121-2.77,1.945-2.668,3.793,0c3.402,4.779,4.352,10.684,8.207,15.23
		c0.867,1.021,1.754,2.309,2.805,3.168c-1.281,8.109,10.914,18.033,15.691,21.957c8.184,6.729,20.379,16.881,30.863,9.592
		c7.32-5.076,15.953-7.451,23.273-12.561c2.547-1.814,9.465-8.176,8.309-11.803c-0.918-2.904-4.188-1.779-6.527-2.34
		c-4.617-1.156-8.836-4.648-13.023-6.793c-4.813-2.412-7.188-4.779-9.242-9.463c-1.414-3.232-4.223-9.729-4.156-13.188
		c0.047-3.332,1.617-3.07,3.406-5.277c1.281-1.584,1.684-3.592,2.672-5.439c2.141-4.025,6.254-8.672,3.859-13.615
		c-1.32-2.705-5.145-3.234-6.629-5.969c-3.457-6.461,7.582-15.691-4.418-17.504c-5.465-0.824-9.453,2.967-14.434,2.074
		c-4.059-0.723-7.449-4.414-10.285-7.119c-2.57-2.471-6.031-6.031-4.25-10.188c1.484-3.561,6.531-3.332,9.5-4.648
		c3.461-1.516,7.023-4.252,10.32-6.199c2.961-1.748,5.207-3.297,4.934-7.285c-0.496-7.154-11.012-9.924-7.848-18.893
		c1.254-3.527,4.398-5.371,8.277-3.494c4.441,2.176,4.484,5.207,10.254,4.646c2.797-0.26,6.727-1.156,9.07-2.471
		c3.07-1.717,4.355-5.244,7.023-7.484c2.539,1.748,1.484,5.439,5.273,4.912c2.703-0.396,3.695-3.725,4.516-5.768
		c1.984-5.014,5.082-11.504,10.883-5.309c2.375,2.504,1.652,6.037,3.133,8.805c1.387,2.572,4.188,3.887,5.539,6.494
		c1.387,2.67,2.012,5.641-0.258,7.75c-2.215,2.043-5.016-0.232-4.777,4.219c0.164,2.668,3.992,6.133,5.379,8.408
		c2.371,3.924,4.25,6.924,9.07,4.057c3.82-2.273,3.953-6.66,5.664-10.088c1.754-3.496,5.773-5.473,8.75-8.244
		c2.703-2.541,6.398-5.145,5.406-9.363c-1.02-4.189-5.262-3.07-6.723-6.629c-1.918-4.648,2.902-4.416,5.434-5.768
		c2.305-1.252,4.414-6,7.352-5.705c0.992,5.377,7.082,0.266,9.172-1.615c5.172-4.779,8.594-11.936,16.055-8.836
		c4.188,1.748,8.539,5.244,11.836,8.307c2.578,2.377,3.957,8.34,7.52,8.246c4.063-0.098,2.77-6.297,7.449-4.418
		c3.164,1.289,2.57,5.541,5.242,7.418c4.813,3.426,4.559-1.518,7.918-2.605c4.316-1.383,4.352,4.648,4.188,7.385
		c4.418,0.924,4.648-1.943,6.957-4.682c3.125-3.723,6.582-2.898,11.043-1.91c5.043,1.088,9,4.816,13.918,6.264
		c4.477,1.352,8.906-0.496,11.836,4.416c2.504,4.219-0.621,3.824-1.777,7.516c-2.438,7.617,6.918,8.969,12.035,9.893
		c12.262,2.176,37.684,7.451,38.672-11.604c0.332-6.133-2.797-4.385-5.762-7.354c-2.473-2.471-0.422-6.463,2.801-8.375
		c5.633-3.297,17.836-1.584,21.863,3.924c2.762,3.824,4.719,8.408,7.605,12.199c3.703,4.813,6.406,9.527,8.113,15.365
		c1.055,3.494,2.176,7.615-0.922,10.252c-1.605,1.352-8.309,1.584-7.914,4.551c0.164,1.221,4.941,3.098,5.926,4.09
		c2.578,2.504,4.254,6.066,5.672,9.262c4.887,10.881,7.254,22.189,11.543,33.068c3.754,9.396,10.684,16.785,17.105,24.465
		c5.145,6.131,9.992,12.592,16.285,17.541c3.754,2.934,6.918,4.68,8.25-1.09c0.457-1.98,0.531-5.406,0.09-7.383
		c-0.563-2.541-1.188-1.945-2.469-3.691c-2.305-3.133-2.598-6.197,1.254-9.07c3.727-2.803,6.23-0.59,5.434-6.295
		c-0.625-4.252-3.203-6.527-5.051-10.287c-1.848-3.758-1.188-6.133,0.402-9.824c2.707-6.201,2.762-14.705,7.32-20.277
		c7.914-9.588,11.762,5.74,17.836,1.781c0.039-0.031,0.07-0.031,0.094-0.068L1968.643,764.076z"/>
	<path id="path12" fill={{queensFill}} stroke="#000000" stroke-width="3" stroke-miterlimit="10" d="M1845.861,1457.5l0.203,43.98
		l-15.297-0.793c-2.082-1.68-4.355-4.219-6.918-4.082c-3.363,0.195-7.391,3.449-10.32,5.012c-3.492,1.844-6.691,4.766-9.898,7.082
		c-7.113,5.145-14.57,10.32-23.242,12.41c-3.398,0.777-7.227,0.395-10.75,0.395c-3.918,0-7.918,0.234-11.801,0
		c-7.32-0.395-14.109-1.977-20.582-5.473c-6.859-3.691-16.645,1.32-23.434,2.801c-5.805,1.25-11.438,2.211-17.145,3.914
		c-4.484,1.363-9.789,1.691-13.848,3.828c-4.191,2.215-8.605,3.328-13.156,4.559c-4.715,1.277-9.199,3.164-14.012,3.988
		c-6.824,1.188-13.32,3.395-20.215,4.516c-8.711,1.414-16.227,6.168-24.695,8.211c-9.367,2.309-18.59,5.086-27.754,7.945
		c-6.926,2.145-14.047,3.527-20.875,5.902c-7.777,2.746-15.57,5.746-23.469,8.215c-4.617,1.414-9.336,2.598-13.98,3.918
		c-5.109,1.449-9.133,3.297-13.879,5.738c-6.629,3.371-13.289,6.734-19.918,10.086c-12.992,6.563-25.941,13.188-38.574,20.43
		c-8.18,4.695-16.09,9.41-24.742,13.234c-4.938,2.176-11.207,3.527-15,7.484c-1.152,1.184-1.586,2.539-3.328,2.242
		c-1.879-0.289-1.484-1.977-2.672-2.738c-1.414-0.922-3.727,0.395-5.043,0.891c-6.262,2.418-11.773,7.023-17.641,10.285
		c-13.117,7.289-27.332,13.715-41.926,17.25c-9.758,2.379-19.418,5.469-29.086,8.215c-7.848,2.242-14.906,5.012-22.063,8.801
		c-2.414,1.277-4.973,2.133-7.445,3.254c-1.617,0.73-3.098,2.375-4.75,2.836c-5.141,1.453-5.184-6.727-9.262-5.762
		c-2.77,0.621-5.641,2.672-8.477,3.492c-11.738,3.457-23.926,5.18-35.641,8.215c-7.055,1.848-14.375,1.914-21.395,4.082
		c-6.891,2.145-13.453,4.617-20.047,7.648c-6.297,2.867-12.957,5.746-19.484,7.98c-4.234,1.449-9.102,2.109-12.793,4.746
		c-2.012,1.398-3.918,4.066-6.73,2.637c-1.52-0.781-2.961-3.945-3.695-5.426c-2.305-4.586-4.914-10.07-4.914-15.246
		c0.035-9.328-1.945-25.055,9.168-28.848c5.926-2.043,12.66-3.789,18.891-4.68c6.531-0.992,11.277-3.859,16.887-6.859
		c1.352-0.758,3.367-2.273,4.938-2.086c1.684,0.242,2.309,1.781,4.289,1.891c1.969,0.066,3.66-1.977,5.371-1.648
		c0.992,0.164,1.082,1.25,2.051,1.684c0.82,0.395,2.105,0.09,2.961-0.035c5.473-0.902,10.156-4.648,15.039-7.086
		c3.625-1.816,6.984-4.059,10.418-6.199c2.703-1.715,5.211-4.156,8.508-2.969c4.383,1.617,7.754,5.109,11.965,7.188
		c3.656,1.781,9.789,2.109,13.387,0.164c1.648-0.914,1.941-1.844,3.957-2.043c2.508-0.23,3.727,1.285,5.902,1.684
		c3.824,0.656,8.969-3.297,11.34-5.836c3.211-3.418,5.547-7.414,8.773-10.684c2.703-2.766,5.703-8.637,9.988-7.414
		c4.387,1.223,6.59,6.453,11.539,5.762c3.738-0.496,6.793-3.328,9.902-5.176c1.934-1.188,3.285-2.637,4.75-0.164
		c0.988,1.68,0.594,5.371,3.492,3.727c1.914-1.113,2.539-3.328,4.879-4.082c2.379-0.793,3.402-0.199,5.051,0.957
		c4.148,2.922,10.613-0.078,14.797-2.086c3.793-1.848,7.586-3.75,11.18-5.922c5.18-3.133,10.195-6.102,15.203-9.496
		c13.813-9.297,27.293-19.07,40.945-28.527c4.945-3.422,9.953-6.652,14.473-10.586c3.461-2.969,7.559-6.234,11.934-7.617
		c6.418-2.078,11.211,2.605,17.102,3.461c5.875,0.859,11.383-0.094,17.188-0.75c5.902-0.738,11.133-1.727,16.68-3.988
		c5.574-2.309,11.344-4.285,16.805-6.957c5.641-2.77,11.023-5.75,17.086-7.52c4.32-1.254,8.273-2.34,12.004-4.844
		c1.68-1.156,4.055-2.223,6-1.191c1.484,0.75,0.426,1.883,2.242,1.148c0.535-0.234,1.285-1.441,1.723-1.805
		c3.914-3.57,8.672-6.66,12.992-9.793c2.672-1.945,5.375-3.824,8.242-5.504c2.25-1.32,5.086-2.254,7.156-3.758
		c3.363-2.539,4.613-7.082,8.672-8.836c4.648-2.012,7.777,2.141,11.309,4.613c1.48,1.023,2.734,2.344,4.316,3.23
		c2.102,1.156,4.352,1.09,2.633-1.582c-0.918-1.449-2.797-2.602-4.184-3.527c-1.941-1.285-5.414-2.176-6.898-3.957
		c-2.539-3.031,0.195-9.07,3.492-10.254c4.32-1.551,6.734,0.734,8.309,4.48c1.082,2.605,4.453,10.453,7.938,9.66
		c0.426-2.207-1.805-5.504-2.871-7.352c-1.551-2.758-3.457-5.34-4.934-8.145c-2.605-4.934-2.016-9.727-0.574-14.922
		c1.254-4.559,7.453-3.738,11.059-2.75c2.305,0.66,4.313,1.684,6.613,2.145c2.969,0.566,6.078,0.566,9.133,0.566
		c2.746,0,5.277-0.621,7.719-1.918c3.168-1.648,6.535-3.035,9.492-5.109c4.723-3.254,9.926-6.199,12.207-11.707
		c0.785-1.91,0.422-4.316,2.672-4.977c2.344-0.691,4.68,1.891,5.305,3.855c1.516,4.754-0.918,6.574-3.895,9.543
		c-2.762,2.793-6.73,7.148-7.98,10.934c-0.586,1.887,0,3.988-0.23,5.934c-0.199,1.848-1.063,3.133-1.848,4.746
		c-1.027,2.059-0.863,4.125-0.824,6.41c0,1.32-0.039,6.727,1.816,4.934c0.945-0.914,0.781-4.746,1.055-5.957
		c0.418-2.141,0.418-4.684,1.055-6.758c0.695-2.406,2.914-3.824,4.391-5.762c1.754-2.305,2.875-5.438,4.254-8.051
		c1.516-2.758,3.199-4.684,5.34-6.914c2.277-2.379,5.012-4.813,6.133-7.945c1.414-3.859-1.516-4.082-3.07-6.988
		c-1.445-2.703,2.379-3.992,4.156-5.18c2.965-1.977,5.434-3.855,6.398-7.383c0.75-2.711,0.953-4.918,2.438-7.227
		c1.418-2.246,2.926-4.156,4.555-6.203c1.648-2.047,2.867-2.961,5.574-2.434c2.508,0.496,5.086,1.609,7.613,2.246
		c4.781,1.152,8.379,3.527,10.617,7.918c2.371,4.582-1.254,10.555-3.5,14.742c-2.965,5.578-3.754,12.297-7.977,17.109
		c-4.086,4.715-10.555,5.141-15.367,8.672c-2.305,1.715-3.895,4.277-1.941,7.055c1.648,2.309,5.176,2.504,7.816,2.012
		c6.359-1.219,5.141-6.789,7.938-11.145c0.859-1.316,2.875-2.504,4.484-2.703c2.711-0.328,2.578,1.484,3.328,3.527
		c1.516,4.023,4.516,8.086,6.754,11.539c1.121,1.754,1.648,0.902,3.527-0.164c1.555-0.852,3.07-2.043,4.719-2.672
		c4.086-1.516,4.754,4.617,9.262,3.828c0.422-5.18-5.086-4.605-6.621-8.598c-1.391-3.531,0.586-8.34,0.258-12.074
		c-0.207-2.18-0.898-4.605-1.648-6.695c-0.824-2.211-2.176-3.891-1.648-6.395c0.695-3.535,0.625-7.355,1.391-10.781
		c0.656-2.93,3.727-5.18,2.703-8.574c-1.188-4.121-7.352-6.43-10.582-8.801c-1.516-1.156-4.188-3.102-4.809-5.012
		c-0.496-1.52-0.035-3.992-0.035-5.586c0-4.805,2.473-4.715,6.785-4.715c3.531,0,7.32,0.59,10.777,0.035
		c2.805-0.453,6.426-3.496,9-1.023c2.746,2.578,2.344,6.57,6.008,8.867c3.418,2.145,10.059,2.086,12.754,5.254
		c3,3.461-3.891,8.18-3.691,11.574c0.164-0.031,0.453-0.133,0.586-0.133c2.766,0,5.867-7.219,7.586-8.953
		c2.137-2.219,5.105-3.465,8.043-4.586l0.039,0.102c1.773,0.414,3.621,2.832,4.684,4.188c2.008,2.473,2.379,5.371,5.965,3.395
		c2.965-1.684,6.164-3.418,9.035-5.301c1.121-0.754,1.941-1.68,3-2.508c1.977-1.555,4.773-2.598,6.988-3.949
		c1.754-1.059,4.941-3,6.953-1.559c3.824,2.797,6.43,7.355,8.309,11.672c2.082,4.809,4.059,10.25,6.957,14.707
		c2.246,3.496,5.043,7.25,7.75,10.449c1.086,1.313,2.273,2.578,3.566,3.656c0.656,0.594,1.387,1.316,2.211,1.688
		C1844.248,1457.434,1845.631,1457.367,1845.861,1457.5z"/>
	<path id="path22" fill={{queensFill}} stroke="#000000" stroke-width="3" stroke-miterlimit="10" d="M1694.404,1400
		c1.883,1.777,4.844,4.285,4.547,7.082c-0.23,2.184-1.969,3.207-3.691,4.527c-5.473,4.25-10.914,8.262-16.277,12.691
		c-5.914,4.813-13.891,8.344-18.043,14.836c-1.113,1.75-3.66,6-6.457,4.648c-0.922-0.461-1.418-1.449-1.648-2.547
		c-0.238-1.109-0.238-2.344-0.238-3.289c0-4.285-0.824-6.328-3.914-9.426c-2.086-2.047-5.25-5.574-8.25-6.301
		c-4.355-1.109-17.543,2.641-17.742-4.547c-0.066-2.344,0.914-4.648,2.246-6.891c1.645-2.77,3.789-5.418,5.051-7.816
		c2.078-3.957,4.023-7.918,5.758-12.031c1.617-3.871,3.793-6.594,6.535-9.66c2.051-2.254,3.293-5.254,4.586-7.98
		c0.723-1.586,1.484-3.242,1.648-4.918c0.09-0.914-0.691-2.758,1.055-2.535c1.418,0.195,1.844,3.73,2.582,4.68
		c1.551,2.012,5.098,2.637,7.441,1.754c0.695-3.426-8.078-3.297-6.75-8.602c1.52-5.969,7.32-1.781,10.059,0.461
		c1.918,1.547,3.262,1.582,5.582,2.207c1.848,0.496,2.902,2.254,4.055,3.566c1.285,1.445,2.871,2.742,4.121,4.227
		c1.914,2.211,2.965,4.938,4.352,7.445c1.551,2.836,3,5.711,4.684,8.434C1688.166,1394,1691.037,1396.832,1694.404,1400z"/>
	<path id="path28" fill={{queensFill}} stroke="#000000" stroke-width="3" stroke-miterlimit="10" d="M1649.295,1445.465
		c0.328,3.418-1.359,6.625-3.098,9.363c-2.082,3.262-5.602,2.703-8.969,3.824c-2.633,0.891-5.305,2.766-8.141,2.867
		c-2.926,0.133-5.574-2.074-8.246-3.066c-5.25-2.012-9.789-7.254-10.285-13.066c-0.129-1.477,0.074-2.836,0.527-4.109
		c1.617-4.418,6.203-7.684,9.957-10.418c2.145-1.582,4.617-3.164,7.391-3.09c4.973,0.035,10.48,2.836,14.043,6.453
		c2.348,2.418,4.754,4.977,6,8.055C1648.9,1443.254,1649.197,1444.344,1649.295,1445.465z"/>
	<path id="path30" fill={{queensFill}} stroke="#000000" stroke-width="3" stroke-miterlimit="10" d="M1643.1,1349.852
		c0.07,1.285-0.895,1.152-1.648,1.918c-1.391,1.352-1.75,3.25-3.125,4.414c-1.781,1.48-4.031,1.121-6.133,1.516
		c-1.848,0.328-6.133,1.977-3.629,4.121c1.887,1.582,6.203,0.754,8.543,1.254c0.168,1.883-3.254,4.145-4.477,5.375
		c-2.25,2.242-2.184,4.582-2.469,7.551c-0.203,1.684,0.164,3.363,0,5.012c-0.203,1.945-0.297,2.309-1.723,1.055
		c-2.176-1.91-3.07-6.781-6.918-6c-0.398,1.918,1.453,2.914,2.637,4.156c2.242,2.273,1.75,4.559,1.25,7.559
		c-1.055,6.496-2.734,12.75-4.551,19.023c-0.258,0.949-0.656,2.211-1.184,3.398c-0.898,2.012-2.215,3.895-4.156,4.152
		c-3.363,0.496-3.094-3.66-3.094-5.93c0-3-0.332-5.508-1.191-8.379c-1.117-3.824-5.012-6-6.066-9.914
		c-0.594-2.176-0.461-4.254-1.453-6.465c-1.02-2.309-2.535-3.957-3.824-6.078c-2.668-4.473-4.25-8.625-1.316-13.352
		c2.605-4.25,8.109-5.375,11.34-9.23c3.574-4.289,5.75-9.398,10.918-12.168c4.188-2.273,8.965-1.121,13.023,0.891
		c2.082,1.023,4.152,1.945,6.133,3.211C1640.959,1347.543,1643.064,1348.434,1643.1,1349.852z"/>
	<path id="path32" fill={{queensFill}} stroke="#000000" stroke-width="3" stroke-miterlimit="10" d="M1599.412,1435.145
		c3.574,0.031,5.77,1.746,4.586,5.57c-0.656,2.113-1.648,3.926-3.492,5.18c-0.824,0.57-1.719,0.859-2.375,1.586
		c-0.57,0.625-0.699,1.613-1.32,2.109c-1.586,1.188-4.754,0.395-5.438-1.453c-0.527-1.418,0.422-3.59,0.988-4.754
		c1.023-2.043,4.223-7.414,7.023-8.34L1599.412,1435.145z"/>
	<path id="path34" fill={{queensFill}} stroke="#000000" stroke-width="3" stroke-miterlimit="10" d="M1596.115,1398.082
		c0.094,2.27-1.484,3.73-3.691,2.598c-3.629-1.781-5.742-7.188-6.824-10.75c-0.863-2.879-1.609-5.746-2.598-8.582
		c-0.895-2.508-2.273-3.988-3.824-6.133c-1.121-1.516-1.285-3.254-2.219-4.77c-0.82-1.316-3.398-2.438-2.836-4.285
		c1.32-0.824,2.18-0.66,2.418-2.309c0.195-1.188-0.465-2.965-0.957-3.957c-0.945-2.043-3.691-3.813-4.387-5.922
		c-1.648-5.043,7.98,0.328,7.063-3.922c-0.457-2.141-2.84-2.176-4.391-3.035c-1.516-0.824-2.082-2.012-3.035-3.363
		c-0.891-1.285-2.637-2.34-3.563-3.727c-0.133-0.207-0.262-0.406-0.371-0.625c-0.855-1.848-0.395-5.539-0.254-7.586
		c0.234-2.57,0.297-6.988,2.797-8.594c3.164-2.109,7.445,1.516,9,4.219c1.852,3.234,4.918,6,6.57,9.332
		c2.34,4.715,1.316,10.551,3.691,15.297c2.145,4.223,3.09,7.52,0.496,11.574c-0.133,0.262-0.332,0.492-0.496,0.758
		c-3.254,4.516-2.246,8.801-1.484,13.938c0.859,5.836,2.215,11.172,6.297,15.656
		C1594.732,1395.246,1596.049,1396.207,1596.115,1398.082z"/>
	<path id="path36" fill={{queensFill}} stroke="#000000" stroke-width="3" stroke-miterlimit="10" d="M1593.775,1466.27
		c1.281,1.219-0.125,4.934-0.332,6.559c-0.453,3.926,0.406,13.223-4.68,13.848c-4.852,0.594-7.555-5.34-9.789-8.672
		c-2.434-3.625-7.941-10.316-7.188-15.75c0.125-1.066,0.523-2.055,1.188-2.969c1.777-2.438,4.813-3.758,6.953-5.801
		c1.148-1.156,2.086-3.133,3.859-3.332c0.238-0.031,0.457-0.031,0.656-0.031c6.043,0,3.332,9.914,4.285,13.281
		C1589.654,1466.695,1591.83,1464.418,1593.775,1466.27z"/>
	<path id="path38" fill={{queensFill}} stroke="#000000" stroke-width="3" stroke-miterlimit="10" d="M1571.982,1408.176
		c2.043,1.449,9.492-1.414,8.902,4.121c-0.496,4.613-8.082,0-8.309,3.957c-0.066,1.77,1.484,3.363,1.285,5.297
		c-0.297,2.879-1.613,1.195-3.23,2.305c-1.121,0.793-1.563,5.586-0.859,6.762c1.582,2.703,6.695,1.383,8.629,4.02
		c3.43,4.609-1.223,8.602-4.551,10.848c-2.27,1.551-4.586,3.496-5.766,6.066c-1.059,2.223-0.914,5.352-1.281,7.754
		c-0.098,0.75-0.262,1.484-0.426,2.207c-0.559,2.176-1.352,4.254-1.746,6.406c-0.371,2.133,0,4.551,0.195,6.664
		c0.297,3.75,1.223,10.055-1.086,13.273c-1.551,2.145-4.551,2.801-6.563,4.352c-2.836,2.254-5.047,5.34-7.977,7.453
		c-1.938,1.383-4.914,2.965-7.117,3.855c-1.977,0.824-3.828,0.461-5.141-1.113c-1.063-1.254-1.723-5.25-3.457-5.434
		c-2.254-0.238-2.707,3.988-4.156,5.242c-3.43,2.91-9.566-0.914-12.895-1.914c-3.754-1.152-11.711-2.145-10.156-8.273
		c1.188-4.652,6.094-5.508,10.117-6.629c2.047-0.559,3.492-1.68,5.141-3c2.109-1.684,3.957-1.934,6.594-2.34
		c3.23-0.496,6.582-0.988,9.859-1.387c0.066,1.387-0.328,3.297,0.625,4.453c1.551,1.879,2.211,0.395,3.254-0.793
		c1.395-1.551,2.473-2.441,4.352-3.066c1.754-0.57,3.531-0.957,3.738-3.098c0.363-3.59-4.82-1.914-5.77-5.145
		c-0.824-2.758,3.074-6.035,4.516-8.078c2.574-3.738,3.262-7.68,0.367-11.441c-3.398-4.516-0.09-8.043,4.551-9.789
		c1.723-0.617,4.688-2.375,2.508-4.277c-1.719-1.449-4.883,0.418-6.789-0.426c-1.977-0.914-2.305-4.52-3.031-6.363
		c-1.031-2.77-2.309-5.414-3.531-8.047c-1.281-2.801-3.664-5.219-4.32-8.254c-0.426-1.777,0.367-4.977-1.023-6.129
		c-2.008,2.469-2.805,10.363-6.785,8.109c-3.43-1.945-5.25-6.828-7.617-9.828c-3.754-4.68-7.918,0.695-10.277,4.289
		c-1.887,2.836-1.977,6.328-3.59,9.133c-1.059,1.766-4.027,6.328-6.168,6.164c-3.695-0.266-3.914-5.715-4.02-8.418
		c-0.035-1.715,0.359-3.66,0.086-5.375c-0.324-2.375-2.504-4.254-4.113-6.133c-1.941-2.262-3.859-2.176-6.523-3.496
		c-3-1.48-1.066-3.855-0.297-6.031c0.559-1.648,0.625-3.66,2.922-2.906c1.09,0.367,0.957,1.477,2.75,1.641
		c0.855,0.098,1.844,0,2.59-0.23c2.086-0.594,3.957-1.813,3.926-4.09c-0.07-4.414-6.867-4.641-4.754-9.82
		c1.98-4.914,3.957-9.258,5.418-14.434c0.656-2.34,0.988-5.012,1.844-7.254c0.953-2.406,2.902-3.359,4.484-5.176
		c1.352-1.438,2.176-3.723,0.891-5.34c-1.152-1.438-5.309-0.75-5.012-2.902c0.262-1.715,3.238-1.715,4.352-2.418
		c3.207-1.934,3.402-7.148,4.98-10.148c1.648-3.039,3.586-5.016,3.461-8.672c-0.098-2.797-1.195-4.391-2.219-6.918
		c-1.188-2.836-1.582-5.836-2.871-8.574c-1.219-2.602-2.406-5.055-4.082-7.395c-1.48-2.105-2.273-3-0.953-5.375
		c1.086-1.914,3.328-4.059,5.438-4.48c2.539-0.531,4.52,1.977,6.328,3.398c3,2.383,4.414,5.215,6.133,8.578
		c1.277,2.508,2.598,5.738,5.957,5.344c1.895-0.199,4.754-0.891,6.207-2.047c1.719-1.418,6.234-6.098,5.375-8.473
		c-0.238-0.625-1.352-0.957-1.645-1.613c-0.23-0.629,0-2.211,0.031-2.871c0.133-2.504,1.023-5.504,3.297-6.824
		c2.902,3.363,2.766,7.289,3.066,11.539c0.203,2.441,0.758,5.254,2.086,7.188c1.25,1.816,3.066,3.078,4.387,4.754
		c1.152,1.414,1.918,2.762,3.297,4.055c1.121,1.086,3.031,3.031,1.809,4.754c-0.859,1.25-4.254,1.813-5.602,2.633
		c-0.891,0.492-2.602,1.086-2.672,2.18c-0.031,0.82,1.781,3.254,2.25,4.059c1.586,2.703,3.094,3.789,5.875,4.941
		c3.195,1.313,4.602,4.059,6.727,6.859c1.352,1.715,3.297,4.609,1.613,6.75c-0.988,1.254-4.648,0.988-3.863,3.328
		c0.328,1.063,2.051,0.824,2.906,1.449c0.75,0.563,0.957,1.285,1.453,2.047c1.188,1.723,2.668,3,3.453,4.945
		c0.566,1.352,1.254,4.316,0.621,5.766c-0.75,1.805-2.898,1.355-4.516,1.02c-1.484-0.258-10.648-5.633-9.754-0.492
		c0.133,0.73,1.281,1.883,1.688,2.574c0.789,1.32,1.516,2.746,1.684,4.352c0.195,1.887-0.465,5.418,1.219,6.793
		c1.449,1.152,2.672-0.328,3.66-1.516c1.555-1.848,2.438-1.918,5.043-1.813c2.348,0.129,4.418,1.082,6.078,2.734
		c2.043,2.055,1.156,3.758,0.293,6.133c-1.148,3.164-2.5,5.867-6.043,6.758c-1.711,0.457-6.559,0-6.941,1.914
		c-0.266,1.152,0.723,1.449,1.219,2.309c0.66,1.152,0.922,2.473,1.445,3.656c0.863,2.012,1.984,3.563,3.5,5.113
		C1569.943,1405.504,1570.764,1407.316,1571.982,1408.176z"/>
	<path id="path42" fill={{queensFill}} stroke="#000000" stroke-width="3" stroke-miterlimit="10" d="M1540.693,1445.895
		c0.789,2.055-0.297,3.328-2.145,4.516c-2.105,1.363-4.746,1.727-6.949,2.801c-1.32,0.66-2.969,1.945-4.359,0.793
		c-1.414-1.188-1.055-3.691-2.734-4.813c-1.418-0.914-1.516,0.262-2.539,1.063c-1.156,0.918-2.77,1.418-3.992,2.344
		c-1.48,1.141-2.582,1.516-4.418,1.805c-1.848,0.293-3.859,0.129-5.746,0.129c-2.172,0-2.301,0.789-4.023,1.754
		c-4.414,2.508-2.371-5.668-2.41-7.727c0-0.914,0.133-1.582-0.559-2.242c-0.367-0.363-1.32-0.262-1.586-0.891
		c-0.695-1.523,1.316-2.438,2.305-2.879c2.109-0.855,3.035-1.973,3.695-4.188c0.625-2.043,1.945-4.152,3.262-5.836
		c1.223-1.547,2.602-2.098,3.465-4.02c0.852-1.816,1.473-3.465,3.195-1.551c1.52,1.715,2.27,3.824,2.926,6
		c0.262,0.855,0.402,2.012,0.922,2.738c0.621,0.922,1.277,1.418,1.645,2.418c0.367,1.02,0.461,2.074,0.918,3.066
		c0.953,1.977,2.543,3.426,4.684,1.914c3.563-2.508,1.219-8.383,1.219-11.91c0-1.352-0.031-4.023,1.391-4.848
		c1.773-1.02,3,2.578,3.695,3.793c0.988,1.648,2.34,2.902,3.297,4.613c1.082,1.883,1.914,3.895,2.738,5.906
		C1539.373,1442.402,1540.033,1444.18,1540.693,1445.895z"/>
	<path id="path44" fill={{queensFill}} stroke="#000000" stroke-width="3" stroke-miterlimit="10" d="M1519.693,1513.082
		c0.398,6.586-4.941,9.73-9.133,13.973c-3.727,3.789-7.75,4.066-12.828,3.953c-4.938-0.09-5.176-5.176-6.527-8.965
		c-1.02-2.797-1.418-4.223-0.559-7.188c0.723-2.41,1.582-6.035-0.297-8.211c-1.391-1.617-4.391-1.879-5.672,0.066
		c-0.918,1.418,0.23,3.625,0.164,5.109c-0.07,2.043-0.891,2.309-2.637,3.262c-1.082,0.617-2.738,0.984-3.73,1.719
		c-1.313,0.914-1.719,3.195-3.094,3.461c-4.879,0.914-13.023-6.43-10.352-11.18c2.801-5.082,6.363-9.336,11.602-11.715
		c3.398-1.582,6.418-3.723,9.293-6.129c2.051-1.684,3.535-2.133,5.961-1.113c5.875,2.41,7.395,10.223,12.699,13.551
		C1508.877,1506.359,1519.295,1506.625,1519.693,1513.082z"/>
</g>
<g id="The_Bronx">
	<path id="path24" fill={{bronxFill}} stroke="#000000" stroke-width="3" d="M1686.787,347.008c2.906,3.729,6.82,8.938,5.836,14.012
		c-0.5,2.541-2.215,3.396-3.754,5.213c-2.047,2.408-2.766,5.408-4.117,8.176c-4.355,9.199-8.711,0.068-10.773-4.584
		c-1.234-2.672-2.055-5.771-4.191-7.949c-2.547-2.668-5.25-4.283-7.027-7.646c-2.18-4.156-2.512-8.768-4.441-13.025
		c-1.484-3.131-3.301-6.264-5.086-9.23c-2.871-4.781-6.789-7.289-2.141-11.969c1.918-1.912,2.91-3.691,4.188-6.297
		c1.117-2.307,3.66-4.482,3.863-7.055c0.398-4.912-5.305-11.012-7.977-14.768c-3.371-4.748-6.734-10.354-3.793-16.221
		c2.605-5.176,9.496-9.332,11.969-1.98c1.023,3,0.23,6.133,0.629,9.332c0.395,3.266,1.91,8.145,3.324,11.145
		c1.75,3.756,4.609,6.363,8.434,7.844c2.742,1.088,5.668,2.043,6.957,4.945c1.547,3.463,0.824,8.078,1.316,11.771
		c0.332,2.535,1.121,4.451,3.23,5.836c1.852,1.219,5.313,1.615,6.664,3.561c4.555,6.559-7.414,3.586-9.254,7.352
		C1678.115,340.449,1684.311,343.844,1686.787,347.008z"/>
	
		<path id="path26" sodipodi:nodetypes="cscssscsssssssssscscsssssssssscsscssscscsssssscsssscsssssssccssssssssssssssssscccsscssccsscssscssccssssccsscssssscscscsssscccsccssssscssccccssssscccsssscsccssssscccssssscscscsccssssccsscssscssssscscccssssssssssscscssssssssscsssc" fill={{bronxFill}} stroke="#000000" stroke-width="3" stroke-miterlimit="10" d="
		M1677.518,203.393c3.586,0.1,3.258,6.596,2.473,9c-2.273,6.924-11.91,9-18.164,11.143c-8.582,2.904-8.418,11.377-9.039,19.422
		c-0.328,4.219-0.566,8.406-0.82,12.691c-0.297,4.912-2.711,5.768-5.273,9.527c-3.793,5.572-2.742,11.605-8.742,16.023
		c-5.836,4.354-15.164,6.893-8.965,15.594c2.145,3,5.012,4.188,4.055,8.734c-0.754,3.594-3.855,5.408-5.504,8.572
		c-1.551,2.904-0.891,8.408-2.766,10.816c-2.926,3.76-3.621-1.748-5.051-4.057c-3.527-5.803-9.195-9.627-12.363-16.055
		c-1.547-3.133-1.941-6.691-3.297-9.992c-1.445-3.592-3.25-6.195-3.195-10.32c0.066-3.297,0.461-7.98,1.648-11.113
		c1.25-3.295,4.648-7.082,2.902-11.111c-1.813-4.221-6.398-2.439-8.246,1.156c-1.781,3.332,1.484,7.025,0.398,9.955
		c-1.75,4.682-5.047-1.615-6.254-3.586c-1.855-2.869-4.156-5.34-6.043-8.377c-1.844-3.033-3-7.252-5.43-9.791
		c-1.391-1.418-2.309-2.541-4.523-2.145c-2.211,0.428-1.582,2.408-2.961,2.805c-5.508,1.615-3.039-3.396-3.629-6.102
		c-0.777-3.527-5.762-2.832-6.195-6.164c-0.363-2.902,4.02-4.32,4.547-7.023c0.41-1.943-1.082-3.396-0.824-5.371
		c0.164-1.385,1.563-2.473,1.945-3.793c1.188-3.756,0.07-8.244-4.02-4.844c-1.156,0.988-6.301,8.408-6.238,1.283
		c-3.789-0.623-2.766,4.943-7.25,3.592c-2.273-0.691-5.008-5.406-6.164-7.352c-1.719-2.805-2.836-6.363-1.883-9.592
		c1.52-4.916,3.625-3.691,7.613-4.816c4.809-1.352,3.238-3.725,0.66-6.592c-2.906-3.23-4.688-4.283-3.953-9
		c2.047-13.287,15.691-25.287,4.773-39.168c-4.715,2.273-3.035,15.629-3.66,20.113c-1.055,7.844-5.738,13.219-9.531,20.207
		c-4.844,9-2.305,18.496,1.23,27.729c2.738,7.154,8.672,9.924,9.164,18c0.195,3.459-0.371,8.143,0.422,11.539
		c0.789,3.561,4.945,4.615,5.766,7.85c1.441,5.471-13.449,13.25-7.023,16.055c5.539,2.439,4.609-4.184,5.867-6.561
		c1.688-3.295,7.555-3.459,10.945-2.408c3.949,1.285,5.469,4.945,5.016,9.102c-0.57,5.371-3.336,4.02-7.723,6.168
		c-3.254,1.615-6.332,4.813-6.695,8.57c-0.535,5.477,3,3.926,5.801,6.465c2.766,2.539,1.609,4.98-0.098,7.945
		c-2.141,3.586-3.727,5.078,0.098,9c2.078,2.143,6.297,2.439,5.84,5.107c-0.824,4.912-7.527,1.352-8.715,3.592
		c-1.059,1.98,2.836,1.844,3.57,2.572c1.715,1.68,1.25,1.318,1.645,3.627c0.367,2.045-0.953,2.637,0.398,4.945
		c0.902,1.451,2.309,2.242,3.59,3.264c3.203,2.504,13.617,11.672,6.422,16.057c-5.633,3.395-9.035-12.133-16.352-6.133
		c1.68,1.32,3.727,1.779,5.211,3.295c1.777,1.813,4.754,4.518,6.262,6.496c1.023,1.285,1.813,3.096,2.375,4.549
		c1.023,2.473,2.305,5.969,0.129,8.439c-2.539,2.869-5.242,1.057-6.297,5.641c-1.547,6.791,0.297,15.992,1.227,22.584
		c0.73,5.08,1.918,10.156,5.082,14.34c2.082,2.736,9.828,6.465,8.473,10.516c-0.914,2.736-5.711,2.736-7.063,5.309
		c-1.148,2.244-0.527,10.023,1.449,11.572c2.637,2.076,6.426-0.824,8.574-3c2.219-2.244,3.734-7.221,7.418-7.748
		c3.863-0.527,5.75,3.332,7.285,6.195c4.188,7.816,2.707,17.508,7.125,25.52c3.855,7.023,14.922,8.904,21.891,12.102
		c10.156,4.68,5.207,9.066-1.613,13.188c-5.543,3.332-11.141,10.748-16.152,2.768c-3.754-5.967-2.27-15.924-11.477-15.201
		c0.074,3.43,3.207,6.332,4.891,9c1.977,3.234,1.117,6.396,2.574,9.396c3.426,7.221,12.332,10.912,19.254,12.428
		c7.023,1.549,12.164,6.43,18.563,9.629c5.473,2.736,14.836,2.309,17.441,9.66c3.422,9.793-8.77,9.168-14.582,6.297
		c-6.695-3.332-12.297-8.742-18.918-12.266c-4.813-2.57-8.215-2.504-13.188-3.395c-3.898-0.66-6.824-3.43-9.898-5.672
		c-7.52-5.441-14.18-11.209-21.566-17.012c-8.309-6.529-21.332-3.561-30.297,1.055c-4.586,2.375-8.305,6.793-13.117,8.539
		c-5.246,1.945-10.723-0.75-16.125-0.914c-3.254-0.102-8.836-0.033-10.914,2.867c-2.266,3.232-0.23,9.332,0.102,12.691
		c0.559,5.309,0.133,10.252-5.277,11.213c-13.188,2.371-15.891-7.553-20.797-16.488c-3.332-6.1-3.203-11.244-3.203-18.232
		c0-7.02-1.387-13.779-0.785-20.904c0.523-6.627,4.586-11.867,4.516-18.955c-0.094-8.504-3.258-17.836-6.258-25.752
		c-0.734-1.943-4.883-11.34-7.352-10.057c-2.219,1.152,0.988,15,1.25,16.453c0.789,4.32,2.109,8.639,3.004,12.727
		c0.863,3.957,3.199,7.285,4.027,11.08c2.137,9.496-8.418,12.729-12.902,19.416c-3.09,4.68-3.855,8.441-4.813,13.652
		c-0.449,2.439-2.242,10.584-4.934,11.539c-5.441,1.881-9.664-10.814-14.473-12.496c-3.133-1.055-7.156-0.559-9.863-2.867
		c-2.469-2.08-3.074-9.395-6.59-9.363c-4.648,0-0.363,7.088,1.223,8.969c3.039,3.527,7.254,4.383,11.105,6.658
		c2.77,1.617,6.73,4.221,7.449,7.416c0.961,4.352-4.188,5.672-3.398,9.496c0.59,3.102,6.164,5.77,8.305,7.813
		c2.668,2.539,6.492,6.564,6.625,10.32c0.234,8.604-16.25,9.297-22.156,11.439c-4.516,1.615-8.801,3.297-12.164-0.332
		c-2.805-2.967-4.391-7.916-6.586-11.508c-2.91-4.713-2.582-8.932-2.055-14.504c0.242-2.439,1.914-9.396-0.23-11.176
		c-2.309-1.916-8.91,1.484-11.215,2.209c-4.063,1.219-8.805,2.703-13.188,1.746c-9.953-2.242-10.977-11.471-16.484-17.936
		c-6.297-7.352-15.797-3.295-22.484-8.967c-3.531-3.033-5.414-7.418-8.543-10.754c-2.77-2.902-6.895-3.955-6.203,1.254
		c1.23,8.768,12.301,12.332,18.762,15.66c3.855,2.012,8.375,3.754,11.867,5.768c3.266,1.916,4.223,4.814,5.871,8.143
		c1.613,3.297,3.426,6.332,5.012,9.693c0.922,1.912,1.977,4.68,3.094,6.396c1.027,1.516,2.672,2.176,3.328,4.082
		c4.523,13.418-8.902,30.629-21.852,31.85c-6.465,0.627-5.441-1.549-7.723-5.832c-2.246-4.221-8.578-7.025-13.027-8.213
		c-5.965-1.584-8.305,0.992-12.297,4.945c-3.945,3.955-6.125,6.23-10.223,2.078c-3.199-3.199-5.051-7.91-7.941-11.406
		c-9.125-11.086-20.543-15.396-34.914-12.068c-10.453,2.408-15.434,7.979-21.961,15.564c-4.438,5.143-8.102,9.627-11.012,15.855
		c-1.754,3.727-3.418,7.584-6.199,10.615c-3.367,3.66-5.141,4.221-9.898,3.693c-2.574-0.297-7.813-1.98-10.313-0.824
		c-0.57,0.264-0.992,0.559-1.32,0.891l-23.836-23.604l-16.449,1.447c-0.074-0.063-0.094-0.096-0.133-0.164
		c-4.551-6.422-9.164-13.219-13.754-19.979c-4.75-6.988-10.844-13.615-10.844-22.584c0-0.102,0-0.195,0-0.297
		c0.129-8.867,1.938-17.969,4.148-26.34c1.813-6.992,1.23-15.496,1.98-22.684c0.855-8.244-1.449-17.539-3.754-25.389
		c-2.473-8.307-5.25-15.035-3.695-23.74c1.223-7.055,3.367-13.746,5.543-20.639c1.941-6.168,2.434-12.828,3.785-19.156
		c0.461-2.107,0.992-4.189,1.754-6.201c1.887-5.074,5.082-9.131,7.98-13.68c4.02-6.295,6.297-14.012,9.422-20.803
		c5.305-11.473,12.328-20.342,20.547-29.576c11.703-13.188,21.625-27.957,29.539-43.684c5.875-11.705,16.086-30.137,2.742-40.977
		c-3.922-2.867-8.969-5.668-13.648-6.668c-4.469-0.957-7.477-0.428-11.598-1.32c-3.496-0.756-7.52-3.332-9.695-6.168
		c-2.25-2.9-4.152-5.736-6.824-8.145c-3.531-3.195-7.754-4.816-8.109-9.992c-0.289-3.924,2.047-7.816,3.297-11.406
		c2.836-8.373,5.375-17.113,7.715-25.652c4.285-15.594,10.723-29.836,16.52-44.744c3.172-8.178,4.645-17.904,7.086-26.51
		c2.145-7.547,5.25-14.836,6.66-22.615c1.551-8.371,1.219-16.814,2.41-25.188c0.293-2.012,0.789-4.088,1.281-6.168
		c10.414,3,171.84,73.852,179.563,72.367c1.188-3.332,0.984-7.287,2.434-10.318c1.418-2.934,4.68-3.133,6.297-6.102
		c1.48-2.734-0.234-5.406,0.395-8.244c0.988-4.416,4.391-2.867,7.027-5.471c5.504-5.441-3-11.969,6.527-15.232
		c8.965-3.1,6.621,8.768-1.148,9.66c2.211,2.34,5.41,2.867,7.387,5.275c2.926,3.629,4.113,5.408,4.941-0.527
		c0.73-5.08,2.172-5.504,5.672-1.549c2.871,3.297,3.859,3.92,7.844,5.473c1.391,0.561,3.238,1.451,4.195,2.668
		c1.352,1.717,0.328,2.967,1.25,4.648c2.219,3.99,5.086,1.023,8.641,0.893c10.648-0.332,3.094,11.275,7.02,15.594
		c3.043,3.361,7.559,3.793,4.652,9.893c-1.156,2.408-3.094,2.244-3,5.373c0.098,3.199,1.844,2.504,3.586,4.615
		c3.172,3.824-0.094,8.604,4.32,11.373c1.918,1.188,51.262,20.311,55.484,19.783c-0.492-3.561-5.762-5.439-1.582-7.352
		c2.703-1.221,8.637,0.131,11.012,1.252c11.578,5.309,89.152,32.539,95.75,35.408l0.125,0.131c-0.066,0.033-0.164,0.102-0.234,0.195
		c-0.988,1.156-0.789,2.906-1.449,4.32c-0.82,1.781-2.305,2.969-3.418,4.418c-2.801,3.691-1.613,5.703-2.438,9.922
		c-0.824,4.156-4.387,5.637-4.98,9.857c-0.527,4.02,1.191,7.287-2.141,10.221c-3.199,2.803-6.16,1.879-8.137,5.902
		c-2.344,4.813-3.531,17.969-10.723,13.156c-0.992-0.66-0.824-3.891-3-2.08c-0.891,0.729,0.074,3.629,0.199,4.553
		c0.406,2.736,1.852,8.012-2.574,7.844c-5.93-0.232-8.211-12.561-15.168-12.332c-0.461,6.068,7.98,11.604,10.781,16.32
		c2.926,4.98,8.539,15.428,14.594,8.309c5.215-6.168,8.145-15.236,12.043-22.289c2.082-3.729,4.059-7.156,7.555-9.729
		c3.23-2.408,5.637-1.516,6.457-5.867c0.75-3.924,0.129-6.232,2.047-9.855c1.059-2.014,3.004-2.209,1.684-4.881
		c-0.66-1.352-2.742-0.527-3.297-2.572c-1.352-4.748,9.164-15.924,14.012-14.408c3.793,1.188,1.977,4.848,6.594,5.77
		c4.219,0.855,7.715-0.332,11.102,3.295c6.098,6.496,0.406,13.057-4.914,16.98c-0.898,0.691-4.227,2.539-4.586,3.627
		c-0.988,3.033,0.785,1.68,1.684,3.625c0.82,1.748,0.785,8.012,2.469,8.74C1673.529,210.977,1674.025,203.328,1677.518,203.393
		L1677.518,203.393z"/>
	<path id="path74" fill={{bronxFill}} stroke="#000000" stroke-width="3" d="M1372.975,595.172c1.684,2.441,4.484,6.168,2.047,9
		c-2.406,2.832-6.629,1.516-7.816,5.637c-0.559,1.879-0.918,2.408-2.867,3.131c-1.684,0.625-3.594,0.857-5.414,1.021
		c-5.012,0.428-9.949-0.297-14.965-0.297c-2.336,0-4.813,0.195-7.086-0.396c-3.164-0.893-6.094-2.408-9.297-3.332
		c-3.527-1.023-6.953-1.748-10.551-2.439c-2.738-0.527-4.781-0.725-7.082-2.504c-3.633-2.805-3.297-8.043-6.543-11.176
		c-1.605-1.549-3.723-2.504-5.34-4.156c-1.809-1.844-2.102-2.805-1.438-5.176c0.688-2.441,1.715-4.748,2.371-7.221
		c0.727-2.836,1.285-5.639,1.715-8.572c0.406-2.604,0.957-5.176,1.352-7.746c0.367-2.414,1.52-3.43,3.465-4.846
		c1.352-1.023,2.574-1.779,3.398-3.332c0.621-1.154,1.48-4.551,3.426-3.496c0.988,0.529,1.879,3.297,2.469,4.252
		c0.789,1.32,1.75,2.934,2.902,3.992c1.684,1.516,4.023,2.537,5.91,3.824c1.918,1.352,3.566,2.736,5.742,3.629
		c8.867,3.691,20.93,5.439,24,16.352c0.422,1.615,0.527,3.332,0.758,5.012c0.125,0.924-0.098,3.363,1.109,2.375
		c0.734-0.586,0.266-2.176,0.57-2.902c0.398-0.926,1.355-1.453,2.102-1.98c2.277-1.617,2.711-0.66,4.418,1.121
		c1.848,1.879,3.586,4.023,5.926,5.34c0.953,0.527,1.883,0.723,2.602,1.547C1371.689,592.801,1372.217,594.152,1372.975,595.172z"/>
	<path id="path78" fill={{bronxFill}} stroke="#000000" stroke-width="3" d="M1284.615,562.072c1.188,0.332,2.547,2.08,1.586,3.295
		c-0.727,0.957-2.672,0.629-3.695,1.189c-1.316,0.691-1.316,2.572-3.098,2.176c-1.25-0.264-2.34-1.221-3.457-1.779
		c-1.059-0.529-1.188-1.846-2.105-2.504c-0.895-0.66-2.051-0.529-3.035-0.922c-0.898-0.395-3.039-2.143-1.445-2.902
		c1.281-0.594,2.637,0.131,3.398-1.385c0.656-1.283,1.117-2.045,2.742-2.107c1.117-0.033,1.582,0.195,2.41,0.924
		c1.086,0.955,1.715,2.24,2.902,3.096C1282.045,562.035,1283.232,561.645,1284.615,562.072z"/>
	<path id="path80" fill={{bronxFill}} stroke="#000000" stroke-width="3" d="M1285.377,540.047c1.059,0.43,1.48,1.453,0.691,2.277
		c-0.922,1.02-2.273,1.416-3.453,1.977c-1.414,0.627-2.414,1.746-3.469,2.867c-1.219,1.285-2.367,2.439-3.418,3.924
		c-0.418,0.629-0.918,1.748-1.648,2.107c-0.582,0.266-1.355,0.068-1.914-0.066c-1.285-0.266-2.184-1.254-3.297-1.813
		c-1.285-0.629-3.332-0.66-4.352-1.717c-0.793-0.855-0.074-1.879,0.918-2.176c1.219-0.396,2.375,0.297,2.926-1.252
		c0.402-1.023-0.031-1.943-0.691-2.768c-0.727-0.924-1.449-1.848-2.473-2.473c-0.789-0.527-1.582-1.287-0.824-2.34
		c0.625-0.824,1.977-0.527,2.836-0.756c0.758-0.232,1.25-0.691,1.813-1.188c1.023-0.924,2.211-1.584,3.234-2.473
		c0.922-0.855,0.496-1.451,0.891-2.439c0.59-1.549,3.207-1.98,3.992-0.396c0.535,1.057,0.789,2.244,1.254,3.332
		c0.66,1.717,1.781,2.703,3.203,3.855C1282.736,539.488,1284.021,539.488,1285.377,540.047z"/>
	<path id="path16" fill={{bronxFill}} stroke="#000000" stroke-width="3" d="M1742.768,282.156c1.613,0.992,8.598,3.855,6.129,6.561
		c-1.152,1.287-6.09-0.033-7.719,0.068c-5.434,0.258-9,2.668-8.703,8.439c0.125,2.768-0.238,6.131,0.332,8.932
		c0.488,2.604,1.48,4.252,0.691,7.055c-1.32,4.813-7.719,4.648-3.988,10.754c1.316,2.176,2.832,4.219,4.68,5.967
		c1.52,1.416,4.688,3.068,4.285,5.504c-1.484,0.1-3.164,0.264-4.613,0.068c-4.285-0.592-7.848-6-10.449-9.133
		c-1.715-2.078-2.969-4.383-1.914-7.082c0.914-2.414,2.594-2.473,2.43-5.504c-0.254-5.477-7.914-5.672-5.012-12.102
		c0.988-2.176,3.699-4.088,2.836-6.855c-0.75-2.34-3.422-3.691-4.25-6.164c-0.754-2.34-0.074-4.879-0.422-7.289
		c-0.402-2.734-0.992-5.307-0.824-8.242c0.238-3.855,2.578-3.824,4.754-6.529c1.449-1.811,0.914-4.646,3.234-5.572
		c2.766-1.119,4.941,1.285,6.098,3.361C1734.064,271.08,1735.975,278,1742.768,282.156z"/>
</g>
<g id="Straten_Island">
	<path id="path102" fill={{siFill}} stroke="#000000" stroke-width="3" stroke-miterlimit="10" d="M729.701,1450.344
		c3.133,2.441,10.779,3.691,10.652,8.574c-0.068,3.262-3.068,6.098-4.553,8.879c-1.252,2.406-2.012,4.934-2.867,7.582
		c-1.943,5.77-3.957,11.77-6.4,17.586c-1.777,4.25-4.584,8.043-7.057,12.086c-2.412,3.902-4.221,8.441-6.955,12.133
		c-3.426,4.617-10.68,7.188-15.365,10.453c-4.119,2.902-7.451,6.035-9.691,10.582c-2.145,4.289-4.061,8.223-7.252,11.914
		c-4.184,4.914-7.68,11.078-12.855,15.004c-18.262,13.848-33.262,31.484-49.125,47.902c-3.127,3.242-6.26,7.289-8.932,10.949
		c-2.439,3.328-4.752,6.855-8.209,9.258c-3.563,2.434-4.615,5.082-6.627,8.906c-2.145,4.023-3.988,7.813-6.855,11.473
		c-2.213,2.738-4.518,5.473-6.4,8.344c-1.281,2.012-2.668,5.262-4.881,6.25c-2.604,1.191-4.451-1.602-7.287-0.988
		c-3.793,0.867-4.813,4.031-5.703,7.09c-1.09,3.789-1.918,7.352-4.057,10.813c-2.084,3.363-4.682,6.527-6.568,9.949
		c-0.725,1.281-1.445,5.184-2.703,5.91c-2.969,1.715-2.9-3.43-3.66-5.211c-2.572-6.164-5.969,4.914-8.012,6.859
		c-4.881,4.715-9.266,8.922-12.629,15.09c-3.625,6.625-8.928,13.152-14.764,18c-3.205,2.672-6.568,4.98-9.957,7.359
		c-3.031,2.082-5.703,4.883-9.264,6c-3.752,1.191-5.9,1.391-9.129,3.949c-3.563,2.871-7.52,6.207-10.451,9.738
		c-10.119,12.199-16.484,27.199-28.252,37.883c-3.496,3.164-7.516,7.813-11.436,2.539c-3.133-4.188-8.576-10.387-10.061-15.363
		c-0.787-2.703,0.203-5.082,1.389-7.453c1.814-3.582,2.6-4.383,6.564-4.383c5.703,0,11.867,1.582,16.646-1.848
		c2.674-1.945,5.213-3.758,7.084-6.629c1.781-2.734,3.564-5.801,5.668-8.473c3.629-4.582,9.168-8.836,9.992-14.867
		c0.697-5.277-6.424-12.531-10.775-15.094c-4.156-2.434-10.119-5.336-14.744-2.434c-3.064,1.941-3.496,6.414-7.252,7.516
		c-4.615,1.352-10.947-1.09-10.916,5.836c0,2.77,0.133,4.582-2.473,5.504c-2.631,0.957-4.414,0.266-5.242,3.563
		c-0.43,1.754-0.857,6.211-0.197,7.977c0.752,2.254,2.869,3.004,3.232,5.508c0.691,4.813-2.176,6.793-5.207,9.629
		c-1.518,1.387-2.277,3.098-3.594,4.586c-0.395,0.449-1.352,0.691-1.809,1.109c-0.563,0.535-1.287,2.051-1.779,2.746
		c-1.752,2.43-3.824,4.648-5.504,7.082c-3.264,4.727-6.627,6.035-11.768,8.273c-7.221,3.133-14.477,5.672-21.301,9.695
		c-4.748,2.836-9.199,6.238-13.916,9.133c-5.439,3.363-10.416,7.023-15.332,11.105c-3.891,3.289-7.848,6.863-12.428,9.094
		c-2.736,1.285-5.836,2.141-7.939,4.25c-2.213,2.242-2.672,4.809-5.049,0.656c-1.643-2.875-2.176-5.082-5.867-4.809
		c-0.92,8.539-6.893,10.25-12.957,15.066c-2.104,1.684-4.082,4.25-6.92,4.684c-4.615,0.691-4.752-4.484-7.318-6.891
		c-2.209-2.109-6.033,0.129-8.477,1.977c-3.068,2.34-5.9,4.77-9.068,7.023c-3.527,2.473-6.955,4.68-8.932,8.57
		c-2.113,4.156-3.588,8.441-6.332,12.332c-3.424,4.848-13.652,21.859-21.068,19.023c-2.439-0.914-2.867-3.855-5.275-5.012
		c-2.928-1.352-6.588-0.691-9.033-3.285c-2.043-2.18,0-4.484-1.088-6.824c-1.816-3.758-3.559,0.727-4.879,2.262
		c-1.881,2.219-3.561,1.727-6.396,1.848c-8.768,0.406-15.4,2.473-22.061,8.277c-6,5.207-10.715,11.637-13.32,19.188
		c-2.406,6.898-6.951,10.121-12.92,14.012c-5.867,3.902-10.252,7.09-17.703,4.977c-3.363-0.953-6.955-1.754-8.805,1.918
		c-0.992,1.969-1.088,5.344-3.564,6.566c-5.768,2.832-9.162-6.066-12.859-7.387c-6.291-2.273-12.727,1.715-17.635,5.336
		c-2.412,1.773-4.885,3.457-7.357,5.105c-2.764,1.844-5.867,3.492-7.943,6.043c-2.439,3.035-4.553,6.285-7.416,8.902
		c-2.9,2.637-11.641,6.691-15.496,3.918c-1.611-1.145-1.057-8.508-4.32-6.727c-2.764,1.48-0.855,7.68-5.467,8.473
		c-4.416,0.754-7.252-6.66-9.465-9.332c-3.072-3.727-7.416-6.094-10.287-9.988c-3-4.082-4.717-9.363-6.926-13.918
		c-1.939-3.98-4.279-8.543-5.57-12.73c-1.09-3.586-1.484-10.023-0.465-13.648c0.992-3.582,4.916-3.945,6.66-6.891
		c2.111-3.527,1.648-8.871,1.844-12.895c0.199-3.953,1.943-6.164,4.781-8.836c2.768-2.582,5.768-4.945,8.604-7.527
		c2.436-2.207,5.703-7.551,9.424-4.605c2.08,1.605,3.264,8.543,5.703,3.168c1.188-2.586,0.697-5.512,1.721-8.059
		c2.631-6.395,8.375,1.398,11.867-3.559c2.277-3.234,0.857-3.363-1.68-5.309c-2.604-1.98-3.924-5.102-4.752-8.102
		c-0.232-0.922-1.352-2.582-0.725-3.625c0.561-0.988,2.209-0.625,3-1.449c4.945-5.277-5.012-9.75-5.803-14.211
		c-0.424-2.582,2.604-5.871,4.088-7.684c2.012-2.539,3.26-4.316,4.416-7.395c1.02-2.594,3.76-5.43,3.891-8.301
		c0.133-3.164-2.898-7.031-3.855-10.063c-0.752-2.473,0.164-7.117-1.156-9.168c-1.279-2.012-5.867-3.164-7.715-4.648
		c-2.209-1.809-4.057-4.113-4.881-6.891c-1.188-3.891,0.068-4.023,3.033-6.297c3.756-2.926,0.855-3.988-1.416-7.055
		c-2.145-2.875-3.264-6.73-4.648-9.992c-1.088-2.637-2.668-5.211-1.916-8.25c0.791-3.16,4.648-5.41,7.02-7.414
		c2.213-1.844,3.691-4.316,5.836-6.098c3.133-2.594,3.527,0.078,6.896,0.594c4.057,0.66,6.729-3.594,8.6-6.496
		c2.504-3.824,4.516-6.297,8.145-9.23c2.34-1.918,1.879-3.336,1.916-6.246c0.064-6.754,7.32-1.445,10.775-5.504
		c4.721-5.539,8.604-13.32,15.035-17.109c5.109-3,12.564-0.289,17.109,2.469c6.527,4.027,12.896,4.781,20.672,5.508
		c2.969,0.266,5.768,0.922,8.248-1.316c1.447-1.316,2.34-3.199,3.787-4.52c1.521-1.383,3.365-2.207,4.885-3.617
		c3.232-3.074,5.764-6.953,7.748-10.918c1.252-2.574,3.072-5.211,4.061-7.879c1.219-3.332-0.164-4.395-1.357-7.453
		c-2.57-6.75,1.416-14.309,4.721-19.941c3.455-5.875,1.98-12.895,6.26-18.496c4.156-5.41,13.848-0.785,19.785-3.203
		c5.803-2.375,11.703-7.352,13.516-13.484c1.219-4.023,0.063-14.574,5.471-15.695c4.881-1.02,12.033,6.465,15.992,8.773
		c2.805,1.605,6.529,1.605,9.297-0.074c2.867-1.688,3.459-4.414,0.291-6.258c-2.928-1.68-6.824-1.086-9.824-2.543
		c-2.703-1.281-4.91-3.293-7.115-5.145c-4.816-4.02-12.131-4.445-18.299-4.645c-3.266-0.129-6.396,0.199-9.561-0.566
		c-2.309-0.566-6.496-0.988-8.248-2.742c-4.484-4.418,1.023-11.766,2.012-16.223c0.592-2.801,1.02-5.965,0.461-8.875
		c-0.957-5.082-3.529-9.328-2.77-14.742c0.732-5.082,3.924-9.031,7.98-11.965c7.061-5.047,10.916-11.078,13.516-19.223
		c2.34-7.254,3.824-14.91,5.74-22.289c0.66-2.594,2.008-4.75,2.805-7.281c1.711-5.469-0.629-11.633-3.037-16.414
		c-0.951-1.918-2.836-4.254-3.363-6.363c-0.855-3.371,0.92-6.371,2.904-8.879c2.436-3.121,4.68-6.727,5.635-10.719
		c0.861-3.586,3.496-7.48,3.297-11.176c-0.232-3.891-4.484-5.797-7.352-7.98c-2.869-2.176-4.717-5.43-7.98-6.891
		c-2.504-1.086-5.969-1.418-7.717-3.891c-1.15-1.613-1.844-5.184-2.535-7.066c-0.264-0.754-0.924-2.504-0.793-3.328
		c0.266-1.879,1.156-1.25,2.178-2.508c2.406-2.961-0.133-5.633-0.824-9.031c-1.156-5.703-0.496-11.871,0.623-17.508
		c0.588-3,0.756-5.836,1.023-8.836c0.428-4.484,1.221-9.691,2.473-13.98c2.637-9.07,11.436-14.969,16.881-21.824
		c3.332-4.188,1.943-7.254,3.199-11.969c0.924-3.527,3.264-4.809,6.264-6.582c3.893-2.273,9.201-9.461,13.848-6.461
		c1.717,1.082,3.529,5.371,6.332,3.461c4.32-2.934-1.646-6.297-1.715-8.309c-0.133-2.93,5.904-4.551,8.143-4.684
		c3.953-0.238,3.16,4.387,6.098,3.785c0.096-2.012-0.529-4.938,0.359-6.816c1.289-2.672,4.252-2.086,6.793-2.184
		c4.318-0.234,3.527-2.336,6.559-4.414c3.1-2.145,4.916,1.883,5.277,4.68c0.264,2.082-2.572,6.734-1.057,8.277
		c2.504,2.539,6.424-3.164,7.516-4.688c0.855-1.25,1.881-2.301,2.668-3.59c0.561-0.891,1.188-2.961,1.912-3.559
		c3.264-2.711,7.721,3.617,9.824,5.539c2.248,2.043,5.412,4.02,5.504,7.059c0.072,1.887-2.076,7.063,1.943,5.543
		c1.881-0.695,2.969-4.586,5.705-2.215c2.043,1.777,0.164,5.215,4.119,4.918c0.092-1.719,0-3.461,0.092-5.145
		c1.781-1.059,4.721,0.402,6.264-0.59c1.186-0.727,0.793-5.41,3.496-3.328c2.014,1.559,0.693,4.559,3.102,5.875
		c2.408,1.352,5.303-0.199,7.715,1.848c2.045,1.773,2.145,4.219,1.648,6.727c-0.428,1.977-1.648,5.77,2.408,4.285
		c3.564-1.285,0.791-5.605,4.719-6.328c2.408-0.426,5.869,0.23,8.244,0.559c3.102,0.43,4.717,1.152,6.592,4.066
		c1.221,1.879,2.408,5.305,4.682,6.398c2.207,1.086,4.447,0.359,5.207-1.453c0.561-1.313-0.328-3.195,1.025-4.352
		c3.295-2.758,6,1.027,6.822,3.629c0.693,2.242,0.893,6.129,4.252,5.434c4.061-0.785,0.594-6.984,2.576-8.742
		c1.682-1.445,7.057,0.527,8.74,1.117c2.273,0.754,4.516,3.363,6.531,2.211c2.105-1.25,1.418-4.25,2.209-6.094
		c1.02-2.414,3.561-4.063,6.232-4.414c5.211-0.758,1.715,3.922,4.484,4.121c0.332,0.031,0.727,0.063,1.055-0.035
		c-0.164-2.711,0.594-3.957,3.072-4.648c3.793-1.063,6.201-0.406,8.477-4.395c1.084-1.914,0.561-2.211,2.832-3.293
		c3.729-1.754,9.168-1.418,13.221-1.391c3.855,0.078,8.836,1.418,11.967,3.859c2.668,2.055,2.6,5.086,5.805,6.594
		c2.631,1.25,7.447,2.438,10.156,1.02c1.023-0.492,1.643-1.715,2.539-2.141c1.584-0.75,3.66-0.234,5.309-0.563
		c4.717-1.023,7.484-4.121,10.32-7.586c4.084-5.051,9.396-7.75,15.4-9.203c3.066-0.754,6-1.117,8.967-2.082
		c3.26-1.023,5.805-2.836,8.805-4.25c6.787-3.195,14.34-2.957,21.756-2.957c5.084,0,9.199,0.656,13.652,3.09
		c3.756,2.047,9.031,2.047,13.352,1.059c4.352-0.984,9.031-3.07,12.924-5.102c3.66-1.918,6.92-4.355,10.648-6.133
		c3.232-1.516,6.588-2.637,9.658-4.516c2.045-1.227,5.965-4.98,8.473-4.617c2.109,0.297,4.121,4.156,5.77,5.254
		c6.1,3.984,7.352-3.203,12.363-4.723c2.74-0.859,3.855-1.113,5.836,0.82c1.844,1.754,2.768,3.863,5.145,4.781
		c2.246,0.824,5.275-0.133,6.592,2.41c0.99,1.852-0.861,6,0.455,7.48c1.191,1.32,5.576,0.332,7.225,0.824
		c2.867,0.824,5.572,2.969,7.084,5.418c4.223,6.824,2.576,15.398,3.66,23.102c0.855,6.242,0.264,12.902,0.264,19.156
		c0,6.43,0.527,12.625,0.527,19.027c0,4.887,0.096,9.664-0.561,14.438c-0.422,3.164-0.822,7.516,0.293,10.555
		c2.641,7.188,8.707,12.859,13.252,18.695c1.451,1.852,3.26,4.688,2.672,7.227c-0.66,2.867-3.232,2.34-4.646,4.383
		c-2.506,3.66,2.83,3.043,5.043,3.57c2.211,0.492,6.691,2.43,6.527,5.344c-0.199,3.066-5.08,2.078-4.977,5.301
		c0.094,3.164,5.469,4.613,7.254,6.918c3.428,4.414,3.727,11.477,6.264,16.414c2.764,5.344,6.588,8.473,10.516,12.918
		C720.965,1441.047,725.152,1446.816,729.701,1450.344z"/>
	<path id="path104" fill={{siFill}} stroke="#000000" stroke-width="3" stroke-miterlimit="10" d="M222.594,1417.539
		c0.588,1.918-0.428,2.309-1.686,3.43c-3.127,2.758-4.807,7.484-7.055,11.012c-2.012,3.195-1.881,7.609-0.66,11.109
		c1.223,3.449,3.4,6.582,4.879,9.945c1.389,3.098,4.416,6.691,3.4,10.254c-0.428,1.582-1.68,2.793-2.143,4.414
		c-0.43,1.449,0.031,3.859-0.758,5.086c-1.975,3.086-5.012-3.207-5.867-4.516c-2.244-3.465-5.104-6.598-7.188-10.156
		c-1.416-2.441-2.736-4.918-4.252-7.285c-1.156-1.816-2.641-3.66-3.236-5.77c-1.184-4.109,2.145-7.48,2.176-11.594
		c0.031-2.836-0.164-5.75,0-8.605c0.133-2.641-0.133-5.707,0.896-8.18c0.855-2.141,2.176-4.02,3.496-5.898
		c0.787-1.121,1.912-3.242,3.559-2.586c1.152,0.43,1.518,1.918,2.801,2.383c1.447,0.488,3.096,0.125,4.611,0.531
		c1.389,0.395,2.668,0.824,3.697,1.77C220.449,1413.977,222.129,1416.023,222.594,1417.539z"/>
	<path id="path106" fill={{siFill}} stroke="#000000" stroke-width="3" stroke-miterlimit="10" d="M213.625,1577.543
		c0,0.031-0.031,0.074-0.031,0.098c-0.496,1.285-1.521,2.594-1.85,3.914c-0.691,2.805-1.023,6-1.252,8.883
		c-0.162,2.012,0.133,4.02-0.162,6c-0.17,1.145-0.201,3.449-1.057,4.25c-1.617,1.48-6.301-0.035-8.248-0.133
		c-1.977-0.086-3.824-0.199-5.504,0.789c-1.252,0.762-2.572,1.715-3.588,2.746c-0.824,0.82-1.717,2.301-3,2.379
		c-1.682,0.121-2.473-1.918-2.873-3.266c-1.219-4.152,0.037-8.922,1.188-12.914c1.316-4.484,1.777-9.004,4.025-13.234
		c0.725-1.387,1.32-2.211,2.9-2.406c1.979-0.266,2.836,0.75,4.551,1.441c1.813,0.699,3.428-0.453,5.213-1.059
		c1.879-0.582,3.496-0.727,5.467-0.727c1.252,0,3.037-0.297,4.088,0.398C214.813,1575.531,214.285,1576.52,213.625,1577.543z"/>
</g>
<g id="Brooklyn">
	<path id="path60" fill={{brookFill}} stroke="#000000" stroke-width="3" stroke-miterlimit="10" d="M1428.596,1169.309
		c0.363,3.332,5.512,10.055,3.363,13.09c-0.914,1.25-4.555,2.098-6.07,1.582c-1.715-0.59-2.102-2.969-4.055-2.441
		c-0.891,0.242-3.102,2.672-3.406,3.66c-0.75,2.637,2.086,3.23,3.758,4.551c2.836,2.148,4.281,6.922,0.164,8.605
		c-1.781,0.73-2.414,0.035-4.086-0.164c-1.805-0.262-3.16,0.594-4.582,1.648c-1.449,1.082-2.504,2.91-4.086,3.754
		c-1.844,0.949-4.059,0.859-5.902,1.648c-0.957,0.398-3.59,1.813-3.098,3.203c0.426,1.117,3.734,1.648,4.723,2.176
		c3.199,1.68,1.387,4.68,2.406,7.316c-0.824-0.164-1.609-0.242-2.43-0.203c-0.922,4.523,7.809,6.918,10.32,8.875
		c4.547,3.496,7.914,11.508,8.41,17.078c0.199,2.672-1.188,4.156-1.449,6.762c-0.289,2.633,0.262,5.262,0.262,7.91
		c0,2.871,0.363,7.234-1.355,9.629c-1.582,2.207-4.973,3.031-7.449,3.492c-2.934,0.563-4.316,1.023-6.594,2.766
		c-2.465,1.914-2.922,2.016-4.637-1.063c-2.383-4.188-0.492-9.031-2.418-13.188c-1.254-2.734-5.672-11.012-8.836-10.945
		c1.754,3.867,5.27,8.086,5.473,12.266c0.199,5.207-2.875,7.32-6.922,9.891c-1.715,1.066-3.332,2.801-5.43,2.547
		c-2.703-0.328-3.789-3.164-5.254-5.25c-2.246-3.164-7.605-9.035-12.031-8.176c-0.66,4.02,2.504,9.066,4.02,12.59
		c2.414,5.574,5.219,8.836,9.332,13.086c3.09,3.195,8.746,6.758,9.566,11.473c1.113,6.559-10.418,9.066-14.105,12.793
		c-1.52,1.516-3.238,7.805-4.879,8.176c-1.449,0.328-6.957-5.707-8.223-6.926c-4.844-4.648-9.496-8.59-14.793-12.328
		c1.082,3.195,3.195,6.855,5.375,9.328c2.27,2.543,6.656,4.32,7.773,7.52c1.391,3.922,0.406,8.418-4.059,6.902
		c-4.723-1.586-4.977-5.473-9.254-1.121c-4.289,4.352-7.156,9.297-8.273,15.23c-0.234,1.121-0.133,4.813-1.254,5.473
		c-1.68,0.988-3.559-1.844-3.949-1.648c-2.211,1.234-3.566,4.355-5.547,6.133c-2.57,2.254-5.762,11.441-8.902,11.508
		c-3.754,0.078-5.832-5.047-8.41,0.078c-1.484,2.922,0.164,7.91,0.203,11.078c0,3.953-0.531,8.141-5.277,9.402
		c-5.012,1.277-4.746-2.836-6.988-5.836c-2.539-3.328-7.281-4.941-11.242-2.766c-4.23,2.309-2.086,5.406-0.098,9.066
		c4.188,7.754,8.637,15.598,13.715,22.785c4.688,6.625,7.781,13.844,12.328,20.406c3.738,5.309,9.738,12.047-1.219,12.047
		c-4.121,0-7.848-0.375-11.539,1.152c-4.227,1.746-7.227,5.242-10.883,7.801c-3.238,2.254-8.418,3.336-10.855,6.66
		c-2.211,3.047-1.473,7.563,2.77,7.848c3.328,0.266,6.75-3.75,10.684-4.082c6.855-0.629,14.012,0,20.926,0
		c4.188-0.035,10.754-0.727,13.613,2.539c3.863,4.387,2.801,11.871,4.387,17.176c2.086,7.023,5.805,13.418,8.418,20.254
		c3.957,10.223,6.254,21.234,10.617,31.555c2.238,5.371,4.309,10.68,5.926,16.223c1.352,4.645,3.82,8.879,3.293,13.891
		c-0.73,7.219-11.176,8.922-17.41,11.309c-10.086,3.816-20.441,4.879-30.461,9.031c-7.188,3-17.016,12.234-23.547,5.902
		c-2.672-2.633-4.281-5.836-6.852-8.43c-3.336-3.375-7.563-4.684-11.883-6.492c-3.199-1.355-12.453-4.289-10.414-9.496
		c1.484-3.859,7.25-1.848,9.5-0.207c3.461,2.547,4.02,6.262,8.633,7.23c3.398,0.656,7.227,0.129,8.965-3.004
		c5.27-9.406-5.012-13.121-8.246-19.586c-1.719-3.453,0.254-10.484-4.031-11.633c-3.559-0.949-5.926,3.238-8.629,4.941
		c-10.289,6.461-8.602-8.539-16.418-6.531c-0.09,3.402,5.352,4.32,4.418,8.113c-3.73,0.941-4.887,1.91-7.648,4.68
		c-2.543,2.539-5.703,4.816-8.91,2.012c-1.352-1.23-2.574-7.781-6.09-4.586c-2.012,1.813,0.199,7.066,1.188,8.676
		c3.297,5.336,9.918,6.82,4.945,13.914c-5.379,7.719-8.25-2.176-14.277-1.086c-0.086,2.145-0.031,4.359-0.129,6.496
		c-4.023,0.625-6.988-2.047-10.309-3.727c-5.02-2.605-10.07-5.375-15.211-7.684c-8.637-3.898-19.977-12-28.086-4.68
		c-7.75,6.945-16.781,7.484-27.098,7.484c-2.637,0-17.926,1.145-9.582,3.289c5.008,1.281,12.289,0,17.539,0
		c4.75,0,7.977-0.203,10.188,4.445c1.551,3.168,2.703,8.539,2.906,12.035c0.328,6.406-10.027,18.199-11.215,7.484
		c-8.738-0.457-18.402,1.848-27.035,3.328c-7.648,1.32-15.262,3-23.012,4.07c-6.629,0.887-13.32,0.527-20.02,0.449
		c-5.867-0.09-11.469,1.977-17.27,3.098c-13.082,2.508-26.344,4.023-39.461,6.297c-9.422,1.645-18.898,2.242-28.086,5.047
		c-8.869,2.703-16.652,6.656-25.98,8.043c-14.867,2.176-29.641,3.574-44.809,3c-5.504-0.23-10.939-0.988-15.787-3.824
		c-3.828-2.262-5.936-6.254-9.756-8.637c-5.254-3.328-10.586-3-16.617-4.023c-3.891-0.66-7.383-0.859-8.207-5.375
		c-0.332-1.781,0.891-3.824,0.428-5.766c-0.461-1.969-2.008-3.234-2.904-4.938c-1.844-3.691-1.084-6.164,1.617-9.266
		c2.703-3.086,7.25-6.195,11.078-7.648c3.729-1.414,7.584-0.066,10.289-2.953c1.383-1.453,0.195-2.805,2.535-4.031
		c1.557-0.785,4.121-0.656,5.545,0.258c0.818,0.563,0,2.578,1.057,3.363c0.855,0.629,3.199,0.824,4.188,0.926
		c2.207,0.23,4.484-0.133,6.66,0.063c4.98,0.465,10.746,0.859,15.563,2.508c3.793,1.254,6.896,3.691,10.721,4.848
		c1.912,0.57,5.305,1.613,7.416,0.789c1.553-0.559,1.781-2.082,2.768-2.582c4.775-2.266,5.805,4.066,10.354,2.934
		c0.496-6.461-4.057-7.121-8.309-10.121c-3.396-2.406-4.023-12.035-6.465-12.492c-1.912-0.367-5.668,2.336-8.176,2.469
		c-5.764,0.328-11.641-0.395-16.125-3.691c-3.422-2.508-8.703-7.648-7.844-12.363c0.893-4.98,7.553-5.309,11.473-6.242
		c0.756-3.945-3.363-5.957-2.408-9.82c1.057-4.227,6.588-4.941,5.705-10.68c-2.869-0.262-9.561,5.102-11.412,0.363
		c-1.584-4.066,5.043-4.066,5.703-7.027c1.484-6.621-13.225-10.391-13.252-0.457c-6.465-1.586-12.168-12.43-15.992-17.34
		c-14.145-17.938-36.072-19.289-56.771-23.719c-5.604-1.219-11.641-1.414-17.012-3.891c-3.861-1.773-7.156-4.68-11.049-6.492
		c-3.727-1.773-6.951-4.715-10.484-6.531c-4.844-2.473-5.6,0.133-5.734,4.414c-2.969-1.223-2.418-4.605-2.418-7.387
		c0-3.914-0.359-6.496-2.176-9.992c-3.422-6.582-6.164-13.219-9.127-20.242c-5.107-12.164-11.439-25.188-11.768-38.715
		c-0.164-7.027,0-14.082,0-21.094c0-6.461-0.232-12.789,1.943-18.957c2.541-7.152,6.26-13.941,9.459-20.836
		c3.266-7.055,4.418-14.508,8.709-21.066c4.023-6.168,5.012-13.781,9.693-19.652c2.471-3.133,4.023-3.66,7.715-3.57
		c1.352,0.043,11.867,3.758,11.867,3.863c1.254-8.383-10.447-6.492-11.078-14.383c-0.197-2.703,1.023-6.25,2.867-8.133
		c3.723-3.789,6.332-3.461,9.428-0.074c2.436,2.637,4.279,6.195,8.736,4.918c4.287-1.254,1.816-3.094,1.32-6.59
		c-0.396-2.738-0.857-8.082,2.375-9.426c2.74-1.086,6.4,3.457,8.703,1.559c3.732-3.078-3.332-7.723-5.303-8.637
		c-4.553-2.047-5.271-2.508-2.145-7.484c4.252-6.66,10.943-12.234,16.775-17.641c1.682-1.551,5.672-8.043,7.98-7.414
		c2.908,0.816,1.188,8.836,6.168,5.465c3.102-2.102,0.195-7.188,5.012-3.828c4.844,3.406,4.553,6.664,11.805,4.918
		c0.4-7.883-3.496-7.09-9.424-10.754c-6.131-3.816-1.447-7.801,2.904-11.137c5.248-3.984,12-7.148,17.412-3.199
		c4.115,3,6.588,8.25,12.588,5.742c5.084-2.109,0-2.707-1.484-6.164c-1.551-3.691,0.988-6.691,4.383-4.414
		c2.873,1.941,3.037,6.754,7.061,6.895c3.297,0.129,7.189-3.73,5.408-6.984c-1.748-3.168-9.332-2.715-7.879-8.246
		c0.824-3.133,2.275-2.113,4.584-1.754c2.912,0.496,7.752,2.582,10.355,0.293c1.115-1.031,1.809-3.898,1.279-5.34
		c-0.496-1.395-5.012-3.457-5.012-2.801c-0.588-3.898,2.209-7.781,1.916-12.211c-4.814,2.148-4.393,8.969-9.496,10.984
		c-5.307,2.141-8.936,1.32-12.4,6.984c-0.691,1.156-1.746,6.465-4.023,5.016c-1.484-0.992,0.031-5.43,0.428-6.531
		c1.775-4.879,6.793-8.867,3.66-14.375c-2.143-0.094-2.867,1.617-4.156,3.199c-2.471,3.074-3.732,6.738-6.072,9.922
		c-2.6,3.563-6.992,5.934-10.32,8.637c-4.516,3.695-11.242,11.211-17.738,9.422c-3.266-0.914-6.068-4.25-7.813-7.023
		c-2.275-3.625-1.156-5.43-0.824-9.406c0.328-3.781-0.691-7.68-2.375-10.805c-1.516-2.801-5.473-5.801-4.586-9.336
		c6.266-1.148,10.389,5.961,11.086,11.109c0.723,5.578-1.586,11.93,5.34,14.414c9.363,3.398,12.1-5.055,11.012-12.758
		c-1.484-10.445-7.748-13.059-15.588-18.984c-3.564-2.664-7.648-4.648-10.98-7.418c-6.332-5.246-5.709-12.625-3.295-19.723
		c2.758-8.051,12.23-12.754,19.154-17.379c9.133-6.066,18.137-11.539,26.74-18.418c8.477-6.824,13.885-16.289,19.557-25.32
		c6.424-10.289,10.811-19.785,11.963-31.75c0.533-5.352,1.32-9.207,4.121-13.855c2.34-3.918,5.969-6.332,8.539-9.98
		c1.98-2.805,2.084-7.23,5.412-8.938c4.057-2.109,7.484,0.1,10.648,1.615c7.584,3.627,20.576,2.143,29.049,1.553
		c9.168-0.594,19.285-6.168,25.387-13.09c1.555-1.779,4.121-8.768,6.234-9.168c2.875-0.559,5.582,6.66,6.625,8.736
		c2.086,4.221,2.18,8.111,2.801,12.693c0.363,2.703,4.887,13.25,9.59,9.035c2.707-2.438-1.352-11.176-2.602-13.652
		c-2.141-4.252-5.043-7.98-6.586-12.496c-1.359-3.92-1.887-9.527-1.156-13.779c1.359-7.68,7.063-15.428,10.195-22.516
		c3.914-8.736,6.527-18.037,11.574-26.213c4.777-7.779,9.164-14.504,9.164-23.703c0-8.145-3.332-14.244-4.848-21.926
		c-1.117-5.898-1.484-12.99-1.352-20.012c2.906-0.264,6.527-3.1,9.07-4.119c3.82-1.484,7.063-2.504,10.523-4.881
		c7.555-5.207,16.32-8.539,25.352-5.107c7.609,2.869,14.711,8.045,21.789,12.068c2.965,1.68,6.172,3.561,8.746,5.768
		c2.836,2.408,4.484,6.529,6.363,9.66c3.164,5.408,6,11.275,9.859,16.225c1.844,2.371,3.988,3.264,6.66,4.383
		c3.363,1.418,6.656,2.969,10.254,3.529c2.707,0.428,5.477,0.396,8.141,1.154c4.523,1.285,8.246,4.254,11.105,7.945
		c6.129,7.816,8.77,17.969,11.309,27.4c0.328,1.184,0.625,2.408,0.953,3.592c0.625,2.24,0.289,3.496,0,5.604
		c-0.426,3.1,1.023,2.736,2.961,4.025c1.613,1.055,2.016,3.691,0.863,5.275c-1.586,2.207-5.184,1.416-6.699,3.527
		c-0.914,1.252-0.914,3.924,0,5.145c1.086,1.482,3.336,1.68,4.516,3.068c1.395,1.582,1.941,3.496,3.535,5.012
		c1.25,1.219,3.363,2.176,4.156,3.824c0.855,1.746-0.242,4.023,0.363,5.836c0.527,1.582,3.457,2.107,3.727,3.691
		c0.367,2.176-3.332,2.271-4.75,2.832c-2.742,1.119-1.684,2.572,0.625,3.855c3.398,1.912,6.09,4.484,9.199,6.76
		c1.414,1.021,2.598,2.107,3.914,3.232c1.918,1.648,3.988,0.924,5.965,1.881c1.52,0.729,3.242,2.936,4.52,4.088
		c2.012,1.848,3.133,3.828,4.781,6c2.637,3.461,3.691,2.703,7.648,2.902c0.891,3.461-5.605,2.75-6.992,4.027
		c-2.207,2.051,1.645,3.5,3.262,3.785c1.582,0.297,3.785-0.121,5.18,0.859c0.75,0.535,2.508,2.84,2.461,3.66
		c-0.066,1.688-3.066,2.211-4.383,3.262c-0.957,0.754-3.629,2.137-3.297,3.199c0.734,2.25,7.648,2.742,9.57,3.496
		c2.703,1.059,4.023,3.164,6,5.105c3.582,3.531,8.738,5.512,12.234,9.07c3.691,3.75-7.352,4.777-6.266,9.629
		c2.344,1.277,5.086,1.754,7.453,3.121c1.883,1.121,3.824,2.055,5.703,3.133c1.586,0.922,2.91,2.375,4.195,3.625
		c2.5,2.473,0.418,1.555-1.25,3.164c-1.715,1.68-0.07,3.793,1.383,4.914c1.945,1.52,2.473,1.75,3.102,4.113
		c0.586,2.305,0.617,2.305-0.898,4.086c-1.484,1.75-1.484,2.598,0.328,3.785c0.898,0.566,2.469,0.699,3.098,1.559
		c0.566,0.754,0.164,1.813,0.402,2.668c0.523,2.145,1.75,4.551,3.035,6.453c1.551,2.188,3.859,3.664,5.375,5.934
		c1.254,1.813,2.012,3.789,3.133,5.543c3.563,0.402,3.395-5.508,4.277-7.586c0.57-1.285,1.754-1.777,2.672-2.867
		c0.82-0.957,1.086-2.934,2.438-3.098c0.789,2.707,2.008,5.738,3.328,8.25c0.594,1.121,0.793,2.41,2.211,1.883
		c1.316-0.496,2.746-3.691,4.188-4.617c1.941-1.188,4.023-1.746,6.129-2.57c2.969-1.152,3.43-3.332,5.309-5.574
		c2.25-2.746,5.309-4.586,8.25-6.5c2.875-1.844,4.977-3.863,7.445-6.133c1.883-1.711,4.152-3.031,6.203-4.516
		c4.391-3.195,6.82-7.715,10.555-11.578c2.836-2.906,6.363-5.414,9.789-7.586c4.148-2.672,9.457-3.695,14.082-5.215
		c2.34-0.785,5.375-2.707,7.879-2.637c3.824,0.074,3.496,3.402,3.496,6.402c0,3.457-0.164,6.918,0.328,10.355
		c0.66,4.449,2.582,8.703,3.535,13.152c1.148,5.211,1.445,10.52,2.93,15.695c1.316,4.559,1.609,9.043,2.207,13.723
		c0.133,0.98,0.332,2.867,0.926,3.656c0.781,1.059,0.723,0.789,2.176,0.918c2.176,0.199,3.785-0.492,4.934,1.848
		c0.828,1.648,0.461,3.914,0.461,5.766c0.031,2.906,0.563,2.246,2.672,3.133c4.352,1.773,4.121,8.672,4.352,12.566
		c0.129,3.121,0.758,5.734,2.016,8.57c1.551,3.496,2.082,8.012,2.414,11.77c0.23,2.438,1.316,7.938,4.414,4.25
		c1.066-1.223,1.754-3.828,3.164-4.582c2.273-1.23,2.746,1.582,2.836,3.422c0.098,2.371-0.891,4.148-0.859,6.395
		c0.078,2.086,1.023,4.254,1.918,6.098c0.816,1.684,1.973,3.402,2.629,5.273C1428.529,1164.891,1428.365,1167.133,1428.596,1169.309
		z"/>
	<path id="path62" fill={{brookFill}} stroke="#000000" stroke-width="3" stroke-miterlimit="10" d="M1409.572,1532.371
		c1.648,3.102,0.957,5.18-0.395,8.277c-2.742,6.363-7.352,11.406-10.816,17.309c-2.008,3.461-3.789,7.055-5.766,10.52
		c-1.684,2.965-3.563,8.207-7.844,7.613c-0.863-5.016-1.027-11.109-3.793-15.406c-1.32-2.012-4.113-3.727-3.895-6.234
		c0.238-1.977,1.617-2.273,2.91-3.492c2.762-2.605,4.684-6.332,6.785-9.41c2.379-3.449,8.602-7.68,5.934-12.613
		c-0.629-1.156-4.391,4.602-4.684,4.91c-2.273,2.375-5.441,0.43-8.145,2.309c-1.219,0.855-1.68,2.93-3.563,2.902
		c-1.813,0-1.281-3-1.281-4.582c0-4.848-5.805-8.18-5.145-12.762c0.363-2.734,3.625-4.309,5.77-5.836
		c2.902-2.098,4.609-4.809,7.156-7.055c2.957-2.605,7.438,1.848,10.438,3.363c5.109,2.582,9.57,5.375,12.43,10.586
		C1407.365,1525.844,1407.99,1529.305,1409.572,1532.371z"/>
	<path id="path64" fill={{brookFill}} stroke="#000000" stroke-width="3" stroke-miterlimit="10" d="M1401.396,1426.145
		c1.648,1.383,2.211,2.473,1.883,4.848c-0.453,3.129-2.141,2.867-4.223,4.316c-1.98,1.414-1.082,4.848-2.375,5.805
		c-3.691,2.758-2.902-9.133-2.707-10.523c0.254-2.008,1.75-3.094,2.246-5.105c0.238-0.988,0.238-3.266,1.551-3.594
		C1399.518,1421.43,1400.209,1425.156,1401.396,1426.145z"/>
	<path id="path66" fill={{brookFill}} stroke="#000000" stroke-width="3" stroke-miterlimit="10" d="M1398.1,1349.652
		c0.918,2.539,0.754,5.602,0.621,8.344c-0.195,3.461-1.68,5.867-2.434,9.133c-1.32,5.734,2.344,15.563-1.844,20.176
		c-1.723,1.879-4.063,2.594-6.297,3.582c-3.238,1.453-6.5,2.914-9.789,4.234c-4.188,1.68-8.383,3.063-12.586,4.648
		c-3.207,1.184-5.602,3.23-8.516,4.91c-2.297,1.32-4.938,2.086-7.477,0.758c-2.766-1.449-2.336-3.922-1.586-6.539
		c2.012-6.855,3.859-14.043,6.695-20.574c1.316-3.098,2.055-6.594,3.57-9.527c1.68-3.328,5.172-6.199,8.008-8.543
		c4.516-3.734,9.367-6.918,14.082-10.316c2.012-1.449,3.754-3.262,5.836-4.648C1391.803,1341.707,1395.889,1343.52,1398.1,1349.652z
		"/>
	<path id="path68" fill={{brookFill}} stroke="#000000" stroke-width="3" stroke-miterlimit="10" d="M1392.658,1450.641
		c1.285,0.328,5.277,4.082,4.582,5.703c-0.559,1.285-1.91,1.516-2.43,2.934c-0.734,1.914,0.328,2.902-2.082,3.09
		c-2.098,0.164-9.285-1.75-6.199-4.816c0.586-0.559,1.648-0.23,2.047-0.75c0.625-0.758,0-1.844,0.242-2.668
		C1389.295,1452.551,1390.846,1450.18,1392.658,1450.641z"/>
	<path id="path70" fill={{brookFill}} stroke="#000000" stroke-width="3" stroke-miterlimit="10" d="M1388.771,1429.605
		c1.48,2.043,1.68,4.25,0.688,6.582c-0.582,1.395-1.648,2.508-2.043,4.023c-0.328,1.316,0.074,3.043-1.121,4.066
		c-2.207,1.934-3.586-0.328-3.914-2.418c-0.332-2.043-0.953-5.871-2.594-7.605c-0.828-1.754-1.813-3.297-3.133-4.813
		c-2.672-2.969-3.695-4.586-2.703-8.344c1.055-4.023,0-8.602,1.082-12.57c1.152-4.188,4.152,1.555,5.34,3.133
		c1.227,1.547,3.496,3.395,3.898,5.34c0.656,3.164-2.105,1.879-3.074,3.461C1379.404,1423.441,1387.518,1427.824,1388.771,1429.605z
		"/>
	<path id="path72" fill={{brookFill}} stroke="#000000" stroke-width="3" stroke-miterlimit="10" d="M1388.834,1486.016
		c0.09,2.418-0.164,6.895-2.867,7.059c-5.637,0.328-8.605-10.277-8.441-14.266c0.164-2.914,0.035-5.672-0.254-8.539
		c-0.172-1.945-0.57-5.805,0.754-7.285c2.043-2.344,3.363,0.09,3.59,2.074c0.656,5.641-0.734,10.918,3.289,15.66
		C1386.658,1482.754,1388.701,1483.215,1388.834,1486.016z"/>
	<path id="path46" fill={{brookFill}} stroke="#000000" stroke-width="3" stroke-miterlimit="10" d="M1500.732,1320.047
		c2.344,1.586,4.816,5.473,3.703,8.387c-1.289,3.363-4.527,5.57-6.867,8.176c-2.797,3.164-4.281,6.691-6.094,10.414
		c-1.313,2.637-3.492,17.379-8.703,11.914c-1.582-1.684-2.082-5.219-3.094-7.254c-1.355-2.668-2.605-5.309-4.121-7.848
		c-1.352-2.207-5.246-4.777-5.746-7.285c-0.453-2.176,1.781-3.164,3.469-3.988c3.617-1.809,6.895-4.082,10.352-6.23
		c2.5-1.586,5.305-2.641,7.777-4.289C1494.107,1320.18,1497.631,1317.969,1500.732,1320.047z"/>
	<path id="path48" fill={{brookFill}} stroke="#000000" stroke-width="3" stroke-miterlimit="10" d="M1490.217,1415.164
		c2.473-0.164,5.109,0.363,4.945,3.102c-0.133,2.262-1.586,4.438-2.273,6.582c-1.223,3.824-2.703,8.637-3.094,12.57
		c-0.422,4.52,2.41,10.082-0.859,14.016c-3.789,4.602-11.141,5.098-14.762,9.914c-1.723,2.309-3.594,4.648-6.793,4.715
		c-2.703,0.043-3.914-1.914-5.473-3.945c-1.516-1.977-2.902-4.23-4.715-5.934c-2.25-2.145-4.684-3.793-6.168-6.586
		c-1.184-2.18-0.824-3.207,0.695-4.754c1.188-1.152,2.504-2.637,3.855-3.754c1.617-1.25,3.133-2.305,4.98-3.203
		c2.082-0.992,3-1.551,1.23-3.496c-0.594-0.613-1.484-0.727-1.852-1.516c-0.367-0.75,0-2.574,0-3.418
		c0-1.891-0.125-3.824,0.203-5.605c0.984-4.879,2.738-9.75,3.453-14.672c0.492-3.23-0.859-7.121,0.734-10.082
		c1.445-2.746,4.082-4.727,7.281-4.613c2.539,0.09,6.949,0.527,8.508,2.836c2.379,3.527-2.93,3.395-4.516,4.48
		c-2.746,1.816-3.297,6.133-1.617,8.43c1.977,2.715,3.961,5.586,6.695,7.453C1484.646,1420.41,1486.49,1415.43,1490.217,1415.164z"
		/>
	<path id="path50" fill={{brookFill}} stroke="#000000" stroke-width="3" stroke-miterlimit="10" d="M1474.752,1366.535
		c1.586,1.563,2.473,2.539,1.285,4.754c-3.527,6.465-13.449,3.363-19.125,5.211c-6.984,2.309-14.242,3.754-21.199,6.098
		c-4.746,1.551-9.031,4.109-13.441,6.363c-3.664,1.848-5.273,3.957-7.984,6.695c-3.199,3.23-7.773,2.535-11.598,0.625
		c-2.309-1.188-3.031-2.215-2.746-4.945c0.203-1.551,0.625-3.426,2.641-3.133c0.531,1.285,2.766,4.066,4.383,3.297
		c0.828-0.395,0.828-1.848,1.395-2.504c0.59-0.66,1.152-0.727,1.918-1.023c0.895-0.328,1.582,0.23,2.215-0.793
		c0.418-0.656,0.066-2.703,0.066-3.414c0-2.77,0.234-5.672,0-8.418c-0.23-2.473-0.824-4.68-3.527-5.074
		c-1.816-0.266-3.59,0.855-4.781-0.594c-0.914-1.082-1.582-5.047-1.582-6.563c-0.039-2.055,0.855-4.684,2.633-5.879
		c3.953-2.594,6.695,1.395,9.695,3.078c2.242,1.25,2.805,0.492,3.527-1.781c0.793-2.539,1.684-4.551,3.926-6.199
		c1.477-1.121,3.523-1.945,4.77-3.461c1.254-1.484,1.152-3.727,2.832-4.98c4.398-3.23,3.332,5.387,7.188,4.484
		c0.078-1.91-0.289-5.625,2.719-5.098c1.648,0.293,1.109,1.809,2.172,2.703c3.367,2.969,9.164-1.023,11.41-3.527
		c0.988-1.121,2.246-4.09,3.691-4.563c3-0.945,6.039,6.871,4.555,9.047c-0.895,1.383-3.367,1.484-4.484,2.922
		c-0.984,1.32-1.387,3.199-2.047,4.754c-0.656,1.52-1.477,3.785,1.227,2.672c1.586-0.625,2.18-2.637,4.086-3.133
		c3.898-1.055,8.637,5.246,10.75,7.918C1472.514,1363.566,1473.369,1365.148,1474.752,1366.535z"/>
	<path id="path52" fill={{brookFill}} stroke="#000000" stroke-width="3" stroke-miterlimit="10" d="M1473.369,1302.145
		c1.582,1.977,2.043,3.66,1.813,6.328c-0.66,7.125-5.605,9.398-9.691,14.438c-3.406,4.191-4.719,10.688-10.555,11.93
		c-4.586,0.988-9.492,0.031-14.141,0.363c-4.188,0.297-16.188,4.254-17.969-0.398c-1.883-5.043,0.727-12.66,3.75-16.617
		c3.297-4.352,6.867-8.34,11.18-11.758c4.285-3.406,9.332-6.078,13.883-8.969c3.863-2.473,11.672-4.254,15.699-1.551
		C1469.615,1297.43,1471.654,1300.066,1473.369,1302.145z"/>
	<path id="path54" fill={{brookFill}} stroke="#000000" stroke-width="3" stroke-miterlimit="10" d="M1455.037,1411.246
		c0.898,1.723,1.945,4.148,1.555,6.207c-0.566,2.957-1.719,5.758-2.016,8.898c-0.23,2.254-0.363,5.277-1.414,7.23
		c-2.504,4.719-8.086,6.859-10.285,11.906c-1.223,2.766-2.246,6.988-4.023,9.328c-1.418,1.883-3.426,0.527-5.109-0.824
		c-3.398-2.77-2.211-8.207-4.352-11.934c-2.309-4.023-6.695-7.414-8.41-11.594c-1.352-3.266,3.363-6.574,3.695-10.063
		c0.23-2.27-0.07-3.289,2.043-4.484c1.781-0.988,3.59-0.73,3.957-2.961c0.492-3.406-4.848-5.141-5.746-8.473
		c-0.488-1.813-0.652-5.441,2.051-5.145c2.375,0.262,2.594,3.793,3.828,5.375c1.414,1.781,3.781,0.859,5.262,2.254
		c2.016,1.914,0.402,3.293-1.082,4.113c-1.754,0.984-2.438,1.449-1.883,3.754c0.73,2.836,2.375,3.418,5.016,4.484
		c2.047,0.824,4.77,1.715,6.992,0.789c2.625-1.117,0.23-2.25-1.289-3.699c-2.141-2.047-3-3.695-0.426-6
		C1446.83,1407.285,1452.666,1406.891,1455.037,1411.246z"/>
	<path id="path56" fill={{brookFill}} stroke="#000000" stroke-width="3" stroke-miterlimit="10" d="M1448.182,1477.809
		c1.844,2.965,0.129,8.078-2.215,10.082c-2.742,2.348-6.094,3.496-8.965,5.641c-2.473,1.844-5.012,5.012-8.25,4.879
		c-5.465-0.23-7.309-6.395-11.082-9.813c-2.934-2.68-6.203-5.586-9.754-7.398c-2.598-1.32-8.707-2.539-8.18-6.496
		c0.297-2.473,3.328-3.988,5.145-5.176c1.613-1.055,2.93-2.34,4.391-3.527c4.719-3.793,7.809-3.164,12.895-0.559
		c4.023,2.074,8.309,3.527,12.496,5.262c2.305,0.957,4.414,2.012,6.586,3.164
		C1443.107,1474.875,1447.025,1475.961,1448.182,1477.809z"/>
</g>
<g id="Manhattan">
	<path id="path82" fill={{manFill}} stroke="#000000" stroke-width="3" stroke-miterlimit="10" d="M1230.248,212.129
		c1.777,7.582-1.148,19.387-5.84,25.516c-2.008,2.604-4.941,4.584-7.91,5.867c-2.176,0.924-5.309,1.057-6.859,2.867
		c2.469,1.156,4.188,1.98,3.82,5.014c-0.293,2.572-1.977,3-3.621,4.879c-2.176,2.439-4.223,5.045-6.629,7.221
		c-1.586,1.484-3,4.484-4.813,5.572c-2.102,1.283-2.902-1.553-5.043,0.131c-2.012,1.549-2.344,6.857-3.035,9.201
		c-3.625,12.428-10.883,22.684-17.254,33.791c-2.141,3.729-3.363,7.781-5.34,11.605c-2.102,4.055-4.086,7.979-5.637,12.299
		c-1.277,3.592-3.586,6.232-5.176,9.629c-1.223,2.572-1.52,6.164-1.969,9.068c0,0.066-0.047,0.164-0.047,0.23
		c-1.109,6.527-3.453,12.691-6.066,18.859c-2.707,6.297-4.027,11.014-4.355,17.938c-0.234,5.668-0.621,11.604,0,17.309
		c1.086,10.055,3.586,19.914,4.391,30c0.691,9.199-0.734,18.299-1.613,27.432c-0.457,5.08-0.293,10.252-0.293,15.363
		c0,4.088,0,8.145,0,12.232c0,3.395,0,6.824,0,10.219c0,3.824-0.164,5.77,2.469,8.605c2.438,2.57,4.977,4.748,7.156,7.615
		c4.523,5.904,9.293,12.1,10.754,19.354c1.055,5.176,0.527,11.012,0.527,16.387c0,4.484,0.824,9.428-1.883,13.221
		c-2.539,3.627-6.293,5.736-9.656,8.375c-4.449,3.561-9.367,6.725-13.285,10.912c-3.066,3.332-4.023,7.453-5.672,11.539
		c-1.316,3.297-2.836,6.266-5.012,9.037c-4.914,6.164-15.07,10.68-16.414,19.221c-0.5,3.1,0.688,6,1.91,8.734
		c1.387,3.133,2.113,6.266,3.238,9.465c0.859,2.504,3.398,6.068,3.367,8.736c-0.043,3.068-4.359,5.867-6.242,8.143
		c-2.898,3.529-5.602,6.988-8.836,10.189c-7.555,7.516-12.691,16.484-18.035,25.615c-3.066,5.244-6.129,10.289-9.754,15.232
		c-8.082,10.98-17.305,21.332-25.355,32.439c-6.496,8.969-12.168,18.598-18.332,27.828c-5.508,8.176-12.496,15.297-16.223,24.527
		c-1.586,3.957-3.754,7.754-3.824,12.074c-0.094,4.646,1.648,9.23-1.121,12.992c-1.441,2.012-1.777,3.098-1.648,5.703
		c0.266,4.451,3.535,6.66,4.418,10.451c1.813,7.686-6.727,3.297-9.039,6.893c-2.871,4.551,6.367,6.133,8.105,7.352
		c-2.047,2.045-6.785,0.428-9.121,2.836c-2.441,2.537,0.727,4.252,2.758,6.068c5.914,5.176,9.363,10.881,8.637,18.824
		c-0.402,4.252-1.285,8.408-1.918,12.66c-0.367,2.34-0.699,5.012-1.391,6.893c0,0.031-0.914,0.586-1.086,1.082
		c-0.199,0.561,0.094,1.354,0,1.918c-1.484,10.283-2.082,21.131-6.035,30.791c-2.047,4.98-4.414,9.855-6.328,14.836
		c-1.52,3.992-3.402,6.855-6.664,9.529c-2.871,2.34-5.604,3.59-9.131,4.68c-3.791,1.156-7.32,2.867-11.34,2.867
		c-4.389,0-8.637,0.824-12.992,2.012c-2.904,0.793-6.033,4.68-9.264,3.363c-3.168-1.25-1.844-4.219-1.98-6.758
		c-0.164-2.637,0-2.242-2.504-2.506c-1.484-0.131-2.928,0.133-4.352,0.264c-4.648,0.43-9.426,1.09-13.748,2.77
		c-4.389,1.68-8.178,4.547-12.465,6.428c-2.932,1.32-5.34,2.375-4.584,6.199c0.496,2.668,2.637,4.221,1.717,7.221
		c-2.473,7.918-10.389,13.711-16.416,18.891c-8.836,7.52-5.309-6.914-11.672-5.242c-7.02,1.879,5.906,11.012-1.912,12.09
		c-4.389,0.59-2.869-1.313-4.389-3.859c-1.912-3.125-5.572-0.625-7.219,1.449c-2.109,2.629-3,3.621-6.793,3.234
		c-2.764-0.293-5.34-1.914-7.449-3.75c-1.516-1.352-2.41-2.934-3.234-4.754c-0.889-2.012-2.869-4.609-3.359-6.582
		c-1.025-4.156,2.635-3.199,3.887-5.773c1.648-3.459-1.973-3.955-4.219-3.523c-2.377,0.461-6.758,2.008-8.213-0.893
		c-1.02-2.076,0.92-7.023,1.385-8.967c1.055-4.617,2.307-8.934,3.1-13.549c0.691-4.057,2.271-7.816,2.967-11.867
		c0.922-5.275,1.385-10.553,1.648-15.92c0.625-12.893,5.18-25.389,6.592-38.148c0.264-2.637,0.133-8.408,1.447-10.648
		c1.484-2.539,7.285-2.768,10.086-3.297c2.738-0.527,5.043-0.922,1.914-3.295c-2.738-2.045-14.672-3.824-10.154-8.869
		c1.15-1.283,3.951-2.371,4.482-4.582c0.789-3.594-2.176-1.484-3.914-3.102c-4.121-3.791,9.59-3.992,11.207-4.451
		c1.648-5.932-8.836-2.439-9.855-6.529c-0.793-3.168,2.275-7.582,3.031-10.451c0.859-3.264,0.793-4.088,4.721-4.947
		c1.811-0.428,6.66-0.625,5.244-3.66c-1.188-2.572-5.602-2.012-7.748-2.375c-2.908-0.496-3.264-2.441-0.564-3.857
		c2.08-1.088,4.813-0.496,3.855-4.119c-0.459-1.752-2.305-3.824-3.656-5.145c-2.078-2.08-2.41-2.504-1.355-5.572
		c1.023-2.867,1.584-5.307,1.453-8.504c-0.365-7.287,0.066-13.553,5.738-19.023c3.332-3.201,7.516-4.453,3.789-9.756
		c-2.371-3.43-7.385-4.549-3.988-9.957c2.309-3.691,4.813-7.516,4.648-12.332c2.768,0.133,1.883,2.836,3.295,4.088
		c1.846,1.648,4.121-0.195,5.178-1.879c0.955-1.484,1.814-4.354,0.891-6.168c-0.787-1.549-2.836-2.045-3.23-3.857
		c-0.234-1.119,0.691-3.723,0.986-4.844c0.988-3.727,3.264-6.891,5.408-10.023c0.859-1.285,1.289-2.309,2.545-3.195
		c0.855-0.561,2.764-0.594,3.291-1.09c3.264-2.738-1.645-2.34-3.26-3.33c-1.813-6.496,12.693-0.857,11.176-5.969
		c-1.352-1.32-3.691-1.02-4.057-3.332c-0.295-1.912,1.518-3.855,3.293-4.119c1.484-0.236,4.617,1.943,4.943-0.561
		c0.201-1.717-2.504-2.604-3.822-2.805c-1.156-5.008,6.168-0.496,7.879-0.822c0.564-2.41-2.107-1.713-3.031-3.234
		c-0.729-1.154-0.033-3.426,0.096-4.646c1.023,0.824,8.08,4.68,8.012,0.988c-0.068-2.473-4.549-1.977-5.373-4.021
		c-1.32-3.363,3.129-0.627,4.754-1.383c3.422-1.68-2.014-1.945-2.504-3.297c-0.957-2.734,3.559-2.604,4.715-3.66
		c2.539-2.307-0.625-3-1.188-5.406c-0.588-2.504,1.088-3.594,2.604-5.441c2.541-3.031,2.74-12.195,7.881-11.275
		c0.164,1.057,0.691,3.463,1.615,4.057c1.748,1.184,3.396,0.23,3.627-1.617c0.426-3.297-3.955-5.207-1.582-8.805
		c0.955-1.414,2.535-2.074,3.459-3.855c0.693-1.352,0.955-2.668,1.98-3.855c1.979-2.309,7.611-2.9,5.572-6.855
		c-0.92-1.781-4.68-1.945-5.045-3.297c-0.66-2.637,4.189-1.912,5.504-1.912c2.473,0,4.025,0.332,5.705-1.385
		c1.719-1.746,2.836-4.715,3.992-6.891c3.428-6.232,7.516-12.199,10.582-18.66c1.682-3.465,2.801-7.289,4.648-10.717
		c2.176-3.955,5.34-6.264,7.813-9.822c2.309-3.332,3.625-7.254,5.668-10.717c3.695-6.26,6.695-12.92,10.289-19.252
		c2.768-4.881,5.307-9.264,7.09-14.605c0.82-2.504,1.18-4.914,2.203-7.352c3.73-9,9.895-17.439,15.039-25.684
		c3.789-6.068,6.895-12.559,10.152-18.891c2.145-4.121,3.363-8.705,5.375-12.893c1.777-3.793,4.391-7.084,6.531-10.682
		c1.117-1.943,4.754-6.295,4.645-8.57c-0.063-2.637-3.75-2.441-2.961-4.68c0.785-2.209,5.375-2.408,6.824-4.32
		c1.715-2.277,1.191-5.908,4.191-7.416c0.984-0.496,2.246,0.096,3.234-0.332c1.25-0.529,1.75-1.912,2.41-3.033
		c5.379-9.131,12.098-17.508,18.004-26.439c5.668-8.604,9.727-18.664,13.391-28.225c3.492-9.199,5.344-18.664,8.242-27.992
		c2.215-7.02,7.781-14.406,8.25-21.76c0.422-6.791-4.32-10.68-6.531-16.879c-1.387-3.893-0.625-7.484,1.719-10.779
		c2.082-2.934,4.059-3.496,6.82-5.309c4.855-3.133,8.016-9.197,10.984-13.98c6.293-10.252,11.672-21,17.762-31.32
		c4.648-7.879,8.707-15.695,12.402-24c3.238-7.32,4.918-13.916,4.918-21.891c0-3.102-0.418-6.66,0.297-9.629
		c0.824-3.428,3.621-6.957,5.762-9.629c2.582-3.295,5.672-6.199,8.438-9.264c1.945-2.143,3.266-3.855,6.43-3.627
		c6.066,0.395,9.891,5.604,10.109,11.242c0.133,3.361,0.164,6.926,2.75,9.365c1.844,1.713,6.625,3.561,8.734,1.385
		c1.98-2.012-0.125-5.441,2.805-6.629c3.328-1.32,8.043,1.844,10.879,3.031C1218.346,203.953,1228.732,205.732,1230.248,212.129z"/>
	<path id="path84" fill={{manFill}} stroke="#000000" stroke-width="3" stroke-miterlimit="10" d="M1216.666,559.035
		c-4.121,3.857,5.145,11.938,4.645,16.025c-0.73,6-10.613,10.879-14.336,14.904c-5.641,6.1-11.641,13.32-13.289,21.332
		c-0.824,4.082-0.07,8.967-2.473,12.395c-2.105,2.969-5.41,5.9-7.848,8.705c-2.43,2.803-6.297,5.572-10.25,5.572
		c-1.121,0-2.254-0.232-3.371-0.758c-1.25-0.627-2.211-2.672-3.363-3.527c-1.914-1.451-4.223-2.176-6.363-3.168
		c-5.18-2.34-19.848-7.648-17.477-15.496c0.957-3.1,2.91-5.34,3.738-8.637c1.055-4.082,2.406-4.947,6.066-6.99
		c7.414-4.156,11.934-8.805,16.285-15.793c2.539-4.02,4.844-7.748,5.266-12.561c0.406-4.65-0.23-9.395,0-14.047
		c0.406-7.617,7.484-12.824,2.473-20.113l16.453-1.447L1216.666,559.035z"/>
	<path id="path86" fill={{manFill}} stroke="#000000" stroke-width="3" stroke-miterlimit="10" d="M1142.584,636.715
		c1.117,3.43-3.461,5.145-5.273,7.518c-1.082,1.416-1.883,4.881-4.352,4.748c-2.105-0.133-2.414-3.297-2.93-4.945
		c-1.121-3.459-0.957-9.824,2.801-11.803C1135.924,630.58,1141.529,633.449,1142.584,636.715z"/>
	<path id="path90" fill={{manFill}} stroke="#000000" stroke-width="3" stroke-miterlimit="10" d="M1131.303,666.289
		c0.133,0.66,0.203,1.352,0.203,2.078c0,2.441-0.695,5.209-1.227,7.289c-1.684,6.793-6.785,11.244-10.484,16.912
		c-10.609,16.352-18.898,34.16-29.965,50.248c-6.074,8.836-14.543,15.859-20.746,24.664c-3.398,4.813-9.328,15.297-16.027,14.703
		c-0.164-3.1-0.121-5.969,0.957-8.738c1.414-3.496,3.625-6.529,4.848-10.09c2.582-7.648,7.977-14.406,12.824-20.967
		c4.914-6.66,10.223-13.025,15.094-19.752c5.578-7.648,10.813-15.629,16.418-23.309c4.285-5.836,7.516-12,10.648-18.428
		c0.824-1.68,1.75-3.201,2.77-4.584c1.055-1.352,2.266-2.572,3.75-3.66C1122.174,671.363,1130.021,660.125,1131.303,666.289z"/>
	<path id="path92" fill={{manFill}} stroke="#000000" stroke-width="3" stroke-miterlimit="10" d="M1041.729,784.879c0,0,0,0,0-0.031
		c0.238-0.924,0.492-2.275,1.082-2.504c1.453-0.592,2.25,4.385,2.02,5.441c-0.789,3.422-4.945,3.422-6.566,6.031
		c-0.863,1.352-0.094,3.791-1.117,4.916c-0.734,0.791-3.039,0.66-3.59-0.332c-0.527-0.955-0.074-3.428-0.074-4.553
		c0-1.844,0.328-2.207,1.754-3.395c1.191-1.025,2.387-1.945,3.594-2.869C1039.748,786.893,1041.201,785.936,1041.729,784.879z"/>
	<path id="path94" fill={{manFill}} stroke="#000000" stroke-width="3" stroke-miterlimit="10" d="M874.67,1054.836
		c0.1,2.047,0.559,4.98,0.131,7.355c-0.164,0.918-0.496,1.746-0.988,2.438c-1.68,2.211-5.412,3.793-7.879,4.848
		c-4.252,1.781-8.309,3.395-12.205,6c-4.32,2.867-7.748,6.527-12.035,9.363c-2.408,1.617-4.184,3.035-6.232,5.082
		c-1.484,1.445-3.66,1.559-5.576,0.695c-3.623-1.586-5.867-5.086-8.736-7.645c-1.646-1.484-2.412-2.746-2.248-4.98
		c0.164-1.715,0.594-3.953,1.416-5.504c0.857-1.582,2.541-2.473,3.957-3.574c2.043-1.582,3.951-3.285,6.035-4.766
		c2.604-1.816,3.957-4.25,5.604-6.859c1.645-2.637,2.504-5.75,4.586-8.086c1.879-2.102,4.318-3.75,6.496-5.57
		c1.943-1.648,4.25-3.594,6.727-4.391c3.332-1.082,7.721,1.254,10.191,3.293C867.977,1045.871,874.373,1048.871,874.67,1054.836z"/>
	<path id="path96" fill={{manFill}} stroke="#000000" stroke-width="3" stroke-miterlimit="10" d="M787.861,1016.297
		c1.484,1.148,0.992,3.984-0.496,4.781c-1.416,0.75-3.424,1.082-4.912,1.414c-1.885,0.422-2.932-0.035-4.188-1.453
		c-1.553-1.715-2.309-3.527-4.121-5.043c-1.879-1.551-3.131-2.605-3.164-5.145c0-1.586,0.133-2.867,1.912-3.461
		c1.98-0.625,4.516-0.297,6.199,0.957c1.152,0.895,0.893,1.551,1.316,2.707c0.533,1.313,1.781,1.809,2.836,2.602
		c0.793,0.586,1.453,1.281,2.309,1.75C786.209,1015.801,787.334,1015.898,787.861,1016.297z"/>
	<path id="path98" fill={{manFill}} stroke="#000000" stroke-width="3" stroke-miterlimit="10" d="M774.805,1025.496l0.033,0.031
		c-0.365,0.855-1.189,1.617-1.553,2.473c-0.332,0.891-0.459,1.848-0.824,2.703c-0.592,1.391-1.389,3.297-3.131,2.934
		c-1.648-0.363-2.086-2.246-3.168-3.297c-1.221-1.152-4.156-2.246-4.648-4.02c-0.365-1.414,1.68-2.836,2.307-3.922
		c0.588-1.023,0.461-2.082,0.957-3c0.396-0.781,1.385-1.719,2.043-2.266c1.221-0.988,2.572-1.285,3.332,0.164
		c0.396,0.75,0.26,1.414,0.824,2.078c0.66,0.758,1.648,1.195,2.436,1.754C774.209,1021.676,776.748,1024.801,774.805,1025.496z"/>
	<path id="path100" fill={{manFill}} stroke="#000000" stroke-width="3" stroke-miterlimit="10" d="M769.461,1062.914
		c0.529,2.375-1.813,3.066-3.236,4.25c-0.496,0.398-5.207,6.727-5.539,6.727c-1.781-0.984-2.438-3.297-3.629-4.813
		c-1.447-1.813-2.703-3.727-4.748-4.934c-1.584-0.957-4.088-2.254-3.986-4.32c0.063-1.918,1.779-1.754,2.967-2.871
		c1.279-1.254,2.145-4.086,3.893-4.754c1.68-0.66,3,1.254,3.955,2.277c1.484,1.586,3.232,2.965,5.08,4.086
		C765.801,1059.52,769.037,1060.906,769.461,1062.914z"/>
	<path id="path2950" sodipodi:nodetypes="ccccc" fill={{manFill}} stroke="#000000" stroke-width="3" stroke-miterlimit="10" d="
		M1213.193,191.736l6.52-7.664c7.328-9.016,24.527,3.373,22.176,14.84l-3.586,15.328
		C1237.014,197.633,1218.451,192.207,1213.193,191.736z"/>
</g>


  <text class="title" text-anchor="start" x="400" y="180" fill="black" font-size="50px" text-decoration="underline" font-weight="bold">Legend</text>

  <text class="title" text-anchor="start" x="325" y="260" fill="black" font-size="40px">Low (12-15.99):</text>
  <rect x="720" y="210" width="50" height="50" fill="#3cee00"/>

  <text class="title" text-anchor="start" x="220" y="320" fill="black" font-size="40px">Below Average (16-21.99):</text>
  <rect x="720" y="270" width="50" height="50" fill="#c6ee00"/>
  
  <text class="title" text-anchor="start" x="275" y="380" fill="black" font-size="40px">Average (22-25.99):</text>
  <rect x="720" y="330" width="50" height="50" fill="#eeb300"/>
  
  <text class="title" text-anchor="start" x="255" y="440" fill="black" font-size="40px">Very High (26-29.99):</text>
  <rect x="720" y="390" width="50" height="50" fill="#ee5300"/>

  <text class="title" text-anchor="start" x="230" y="500" fill="black" font-size="40px">Extremely High (30-35):</text>
  <rect x="720" y="450" width="50" height="50" fill="#ee0000"/>

<text x="1450" y="925" font-family="Verdana" font-size="55" fill="black" font-weight="bold">Queens</text>

<text x="1275" y="320" font-family="Verdana" font-size="55" fill="black" font-weight="bold">Bronx</text>

<text x="910" y="780" font-family="Verdana" font-size="55" fill="black" transform="rotate(-60 950,750)" font-weight="bold">Manhattan</text>

<text x="975" y="1300" font-family="Verdana" font-size="55" fill="black" font-weight="bold">Brooklyn</text>

<text x="250" y="1500" font-family="Verdana" font-size="55" fill="black" font-weight="bold">Staten Island</text>









<sodipodi:namedview  objecttolerance="10" pagecolor="#ffffff" borderopacity="1" inkscape:cy="247.2" inkscape:cx="250" guidetolerance="10" bordercolor="#666666" gridtolerance="10" inkscape:zoom="1.5230583" showgrid="false" id="namedview138" inkscape:pageopacity="0" inkscape:pageshadow="2" inkscape:window-width="1680" inkscape:window-height="1000" inkscape:window-x="-8" inkscape:window-y="-8" inkscape:window-maximized="1" inkscape:current-layer="katman_1">
	</sodipodi:namedview>
</svg>